<COLLADA xmlns="http://www.collada.org/2005/11/COLLADASchema" version="1.4.1">
  <asset>
    <contributor/>
    <created>2025-01-15T00:51:21.171939</created>
    <modified>2025-01-15T00:51:21.171943</modified>
    <unit name="meter" meter="1.0"/>
    <up_axis>Z_UP</up_axis>
  </asset>
  <library_effects>
    <effect id="effect_Part__Feature" name="effect_Part__Feature">
      <profile_COMMON>
        <technique sid="common">
          <phong>
            <emission>
              <color>0.0 0.0 0.0 1.0</color>
            </emission>
            <ambient>
              <color>0.0 0.0 0.0 1.0</color>
            </ambient>
            <diffuse>
              <color>0.800000011920929 0.800000011920929 0.800000011920929 1.0</color>
            </diffuse>
            <specular>
              <color>1 1 1 1.0</color>
            </specular>
            <shininess>
              <float>0.0</float>
            </shininess>
            <reflective>
              <color>0.0 0.0 0.0 1.0</color>
            </reflective>
            <reflectivity>
              <float>0.0</float>
            </reflectivity>
            <transparent>
              <color>0.0 0.0 0.0 1.0</color>
            </transparent>
            <transparency>
              <float>1.0</float>
            </transparency>
          </phong>
        </technique>
        <extra>
          <technique profile="GOOGLEEARTH">
            <double_sided>0</double_sided>
          </technique>
        </extra>
      </profile_COMMON>
    </effect>
  </library_effects>
  <library_geometries>
    <geometry id="geometry0" name="Part__Feature">
      <mesh>
        <source id="cubeverts-array0">
          <float_array count="72" id="cubeverts-array0-array">-0.015 -0.39 0.54 -0.03 -0.39 0.54 -0.03 -0.45 0.54 0.015 -0.39 0.54 0.03 -0.45 0.54 0.03 -0.39 0.54 0.015 0.39 0.54 -0.015 0.39 0.54 -0.03 0.45 0.54 -0.03 0.39 0.54 0.03 0.45 0.54 0.03 0.39 0.54 0.03 -0.45 0.04 0.03 -0.39 0.04 -0.03 -0.45 0.04 -0.03 -0.39 0.04 0.015 -0.39 0.44 -0.015 -0.39 0.44 -0.015 0.39 0.44 0.015 0.39 0.44 0.03 0.39 0.04 -0.03 0.39 0.04 0.03 0.45 0.04 -0.03 0.45 0.04</float_array>
          <technique_common>
            <accessor count="24" source="#cubeverts-array0-array" stride="3">
              <param type="float" name="X"/>
              <param type="float" name="Y"/>
              <param type="float" name="Z"/>
            </accessor>
          </technique_common>
        </source>
        <source id="cubenormals-array0">
          <float_array count="132" id="cubenormals-array0-array">0 0 1 0 0 1 0 0 1 0 0 1 0 0 1 0 0 1 0 0 1 0 0 1 0 0 1 0 0 1 1 0 0 1 -0 0 0 -1 0 0 -1 0 -1 0 0 -1 0 0 0 1 0 0 1 0 0 1 0 0 1 0 0 1 0 0 1 0 -1 0 0 -1 0 0 1 0 0 1 -0 0 0 0 -1 0 0 -1 0 0 -1 0 0 -1 0 -1 0 0 -1 0 -0 -1 0 0 -1 0 0 -1 0 0 -1 0 0 1 0 0 1 0 1 0 0 1 -0 0 -1 0 0 -1 0 0 0 0 -1 0 0 -1</float_array>
          <technique_common>
            <accessor count="44" source="#cubenormals-array0-array" stride="3">
              <param type="float" name="X"/>
              <param type="float" name="Y"/>
              <param type="float" name="Z"/>
            </accessor>
          </technique_common>
        </source>
        <vertices id="cubeverts-array0-vertices">
          <input semantic="POSITION" source="#cubeverts-array0"/>
        </vertices>
        <triangles count="44" material="ref_Part__Feature">
          <input offset="0" semantic="VERTEX" source="#cubeverts-array0-vertices"/>
          <input offset="1" semantic="NORMAL" source="#cubenormals-array0"/>
          <p>0 0 1 0 2 0 3 1 2 1 4 1 3 2 0 2 2 2 5 3 3 3 4 3 6 4 7 4 0 4 6 5 0 5 3 5 8 6 9 6 7 6 10 7 6 7 11 7 10 8 7 8 6 8 10 9 8 9 7 9 4 10 12 10 13 10 4 11 13 11 5 11 12 12 4 12 14 12 14 13 4 13 2 13 14 14 2 14 15 14 15 15 2 15 1 15 16 16 13 16 15 16 16 17 15 17 17 17 1 18 17 18 15 18 0 19 17 19 1 19 5 20 16 20 3 20 5 21 13 21 16 21 17 22 0 22 18 22 18 23 0 23 7 23 3 24 16 24 19 24 3 25 19 25 6 25 15 26 13 26 14 26 14 27 13 27 12 27 18 28 19 28 17 28 17 29 19 29 16 29 20 30 19 30 21 30 21 31 19 31 18 31 18 32 9 32 21 32 18 33 7 33 9 33 19 34 11 34 6 34 20 35 11 35 19 35 10 36 22 36 23 36 10 37 23 37 8 37 11 38 20 38 22 38 11 39 22 39 10 39 21 40 9 40 23 40 23 41 9 41 8 41 23 42 22 42 21 42 21 43 22 43 20 43</p>
        </triangles>
      </mesh>
    </geometry>
  </library_geometries>
  <library_materials>
    <material id="mat_Part__Feature" name="Part__Feature">
      <instance_effect url="#effect_Part__Feature"/>
    </material>
  </library_materials>
  <library_visual_scenes>
    <visual_scene id="myscene">
      <node id="node0" name="node0">
        <instance_geometry url="#geometry0">
          <bind_material>
            <technique_common>
              <instance_material symbol="ref_Part__Feature" target="#mat_Part__Feature"/>
            </technique_common>
          </bind_material>
        </instance_geometry>
      </node>
    </visual_scene>
  </library_visual_scenes>
  <scene>
    <instance_visual_scene url="#myscene"/>
  </scene>
</COLLADA>
