<COLLADA xmlns="http://www.collada.org/2005/11/COLLADASchema" version="1.4.1">
  <asset>
    <contributor/>
    <created>2025-01-15T00:53:07.183593</created>
    <modified>2025-01-15T00:53:07.183596</modified>
    <unit name="meter" meter="1.0"/>
    <up_axis>Z_UP</up_axis>
  </asset>
  <library_effects>
    <effect id="effect_Part__Feature" name="effect_Part__Feature">
      <profile_COMMON>
        <technique sid="common">
          <phong>
            <emission>
              <color>0.0 0.0 0.0 1.0</color>
            </emission>
            <ambient>
              <color>0.0 0.0 0.0 1.0</color>
            </ambient>
            <diffuse>
              <color>1. 0. 0. 1.0</color>
            </diffuse>
            <specular>
              <color>1 1 1 1.0</color>
            </specular>
            <shininess>
              <float>0.0</float>
            </shininess>
            <reflective>
              <color>0.0 0.0 0.0 1.0</color>
            </reflective>
            <reflectivity>
              <float>0.0</float>
            </reflectivity>
            <transparent>
              <color>0.0 0.0 0.0 1.0</color>
            </transparent>
            <transparency>
              <float>1.0</float>
            </transparency>
          </phong>
        </technique>
        <extra>
          <technique profile="GOOGLEEARTH">
            <double_sided>0</double_sided>
          </technique>
        </extra>
      </profile_COMMON>
    </effect>
  </library_effects>
  <library_geometries>
    <geometry id="geometry0" name="Part__Feature">
      <mesh>
        <source id="cubeverts-array0">
          <float_array count="756" id="cubeverts-array0-array">0.01941583 -0.000969004 0 0.01944 0 0 0.01944 0 0.032 0.01941583 -0.000969004 0.032 0.0193434 -0.001935599 0 0.0193434 -0.001935599 0.032 0.01922287 -0.002897382 0 0.01922287 -0.002897382 0.032 0.01905455 -0.003851961 0 0.01905455 -0.003851961 0.032 0.01883886 -0.004796964 0 0.01883886 -0.004796964 0.032 0.01857634 -0.005730041 0 0.01857634 -0.005730041 0.032 0.01826762 -0.006648871 0.032 0.01826762 -0.006648871 0 0.0179135 -0.007551172 0 0.0179135 -0.007551172 0.032 0.01751484 -0.0084347 0.032 0.01751484 -0.0084347 0 0.01707263 -0.009297257 0 0.01707263 -0.009297257 0.032 0.01658797 -0.0101367 0.032 0.01658797 -0.0101367 0 0.01606208 -0.01095094 0 0.01606208 -0.01095094 0.032 0.01549626 -0.01173796 0.032 0.01549626 -0.01173796 0 0.0148919 -0.01249579 0 0.0148919 -0.01249579 0.032 0.01425053 -0.01322256 0 0.01425053 -0.01322256 0.032 0.01357372 -0.01391645 0 0.01357372 -0.01391645 0.032 0.01286317 -0.01457575 0 0.01286317 -0.01457575 0.032 0.01212064 -0.0151988 0.032 0.01212064 -0.0151988 0 0.01134798 -0.01578407 0 0.01134798 -0.01578407 0.032 0.0105471 -0.0163301 0 0.0105471 -0.0163301 0.032 0.00972 -0.01683553 0 0.00972 -0.01683553 0.032 0.008868735 -0.01729911 0.032 0.008868735 -0.01729911 0 0.007995421 -0.01771967 0 0.007995421 -0.01771967 0.032 0.00710223 -0.01809619 0 0.00710223 -0.01809619 0.032 0.006191381 -0.01842771 0 0.006191381 -0.01842771 0.032 0.005265139 -0.01871342 0 0.005265139 -0.01871342 0.032 0.004325807 -0.0189526 0 0.004325807 -0.0189526 0.032 0.003375721 -0.01914466 0.032 0.003375721 -0.01914466 0 0.002417242 -0.01928913 0 0.002417242 -0.01928913 0.032 0.001452753 -0.01938564 0 0.001452753 -0.01938564 0.032 0.0004846526 -0.01943396 0 0.0004846526 -0.01943396 0.032 -0.0004846526 -0.01943396 0 -0.0004846526 -0.01943396 0.032 -0.001452753 -0.01938564 0 -0.001452753 -0.01938564 0.032 -0.002417242 -0.01928913 0 -0.002417242 -0.01928913 0.032 -0.003375721 -0.01914466 0 -0.003375721 -0.01914466 0.032 -0.004325807 -0.0189526 0 -0.004325807 -0.0189526 0.032 -0.005265139 -0.01871342 0 -0.005265139 -0.01871342 0.032 -0.006191381 -0.01842771 0 -0.006191381 -0.01842771 0.032 -0.00710223 -0.01809619 0 -0.00710223 -0.01809619 0.032 -0.007995421 -0.01771967 0 -0.007995421 -0.01771967 0.032 -0.008868735 -0.01729911 0 -0.008868735 -0.01729911 0.032 -0.00972 -0.01683553 0 -0.00972 -0.01683553 0.032 -0.0105471 -0.0163301 0 -0.0105471 -0.0163301 0.032 -0.01134798 -0.01578407 0.032 -0.01134798 -0.01578407 0 -0.01212064 -0.0151988 0 -0.01212064 -0.0151988 0.032 -0.01286317 -0.01457575 0 -0.01286317 -0.01457575 0.032 -0.01357372 -0.01391645 0 -0.01357372 -0.01391645 0.032 -0.01425053 -0.01322256 0 -0.01425053 -0.01322256 0.032 -0.0148919 -0.01249579 0 -0.0148919 -0.01249579 0.032 -0.01549626 -0.01173796 0.032 -0.01549626 -0.01173796 0 -0.01606208 -0.01095094 0 -0.01606208 -0.01095094 0.032 -0.01658797 -0.0101367 0 -0.01658797 -0.0101367 0.032 -0.01707263 -0.009297257 0 -0.01707263 -0.009297257 0.032 -0.01751484 -0.0084347 0 -0.01751484 -0.0084347 0.032 -0.0179135 -0.007551172 0 -0.0179135 -0.007551172 0.032 -0.01826762 -0.006648871 0 -0.01826762 -0.006648871 0.032 -0.01857634 -0.005730041 0 -0.01857634 -0.005730041 0.032 -0.01883886 -0.004796964 0 -0.01883886 -0.004796964 0.032 -0.01905455 -0.003851961 0 -0.01905455 -0.003851961 0.032 -0.01922287 -0.002897382 0 -0.01922287 -0.002897382 0.032 -0.0193434 -0.001935599 0 -0.0193434 -0.001935599 0.032 -0.01941583 -0.000969004 0 -0.01941583 -0.000969004 0.032 -0.01944 -6.668404e-17 0 -0.01944 -6.668404e-17 0.032 -0.01941583 0.000969004 0 -0.01941583 0.000969004 0.032 -0.0193434 0.001935599 0 -0.0193434 0.001935599 0.032 -0.01922287 0.002897382 0 -0.01922287 0.002897382 0.032 -0.01905455 0.003851961 0 -0.01905455 0.003851961 0.032 -0.01883886 0.004796964 0 -0.01883886 0.004796964 0.032 -0.01857634 0.005730041 0 -0.01857634 0.005730041 0.032 -0.01826762 0.006648871 0 -0.01826762 0.006648871 0.032 -0.0179135 0.007551172 0 -0.0179135 0.007551172 0.032 -0.01751484 0.0084347 0 -0.01751484 0.0084347 0.032 -0.01707263 0.009297257 0 -0.01707263 0.009297257 0.032 -0.01658797 0.0101367 0 -0.01658797 0.0101367 0.032 -0.01606208 0.01095094 0 -0.01606208 0.01095094 0.032 -0.01549626 0.01173796 0 -0.01549626 0.01173796 0.032 -0.0148919 0.01249579 0 -0.0148919 0.01249579 0.032 -0.01425053 0.01322256 0 -0.01425053 0.01322256 0.032 -0.01357372 0.01391645 0 -0.01357372 0.01391645 0.032 -0.01286317 0.01457575 0 -0.01286317 0.01457575 0.032 -0.01212064 0.0151988 0.032 -0.01212064 0.0151988 0 -0.01134798 0.01578407 0 -0.01134798 0.01578407 0.032 -0.0105471 0.0163301 0 -0.0105471 0.0163301 0.032 -0.00972 0.01683553 0 -0.00972 0.01683553 0.032 -0.008868735 0.01729911 0 -0.008868735 0.01729911 0.032 -0.007995421 0.01771967 0 -0.007995421 0.01771967 0.032 -0.00710223 0.01809619 0.032 -0.00710223 0.01809619 0 -0.006191381 0.01842771 0 -0.006191381 0.01842771 0.032 -0.005265139 0.01871342 0 -0.005265139 0.01871342 0.032 -0.004325807 0.0189526 0 -0.004325807 0.0189526 0.032 -0.003375721 0.01914466 0 -0.003375721 0.01914466 0.032 -0.002417242 0.01928913 0 -0.002417242 0.01928913 0.032 -0.001452753 0.01938564 0 -0.001452753 0.01938564 0.032 -0.0004846526 0.01943396 0 -0.0004846526 0.01943396 0.032 0.0004846526 0.01943396 0 0.0004846526 0.01943396 0.032 0.001452753 0.01938564 0 0.001452753 0.01938564 0.032 0.002417242 0.01928913 0 0.002417242 0.01928913 0.032 0.003375721 0.01914466 0 0.003375721 0.01914466 0.032 0.004325807 0.0189526 0 0.004325807 0.0189526 0.032 0.005265139 0.01871342 0 0.005265139 0.01871342 0.032 0.006191381 0.01842771 0 0.006191381 0.01842771 0.032 0.00710223 0.01809619 0 0.00710223 0.01809619 0.032 0.007995421 0.01771967 0 0.007995421 0.01771967 0.032 0.008868735 0.01729911 0 0.008868735 0.01729911 0.032 0.00972 0.01683553 0 0.00972 0.01683553 0.032 0.0105471 0.0163301 0 0.0105471 0.0163301 0.032 0.01134798 0.01578407 0 0.01134798 0.01578407 0.032 0.01212064 0.0151988 0 0.01212064 0.0151988 0.032 0.01286317 0.01457575 0 0.01286317 0.01457575 0.032 0.01357372 0.01391645 0 0.01357372 0.01391645 0.032 0.01425053 0.01322256 0 0.01425053 0.01322256 0.032 0.0148919 0.01249579 0 0.0148919 0.01249579 0.032 0.01549626 0.01173796 0 0.01549626 0.01173796 0.032 0.01606208 0.01095094 0 0.01606208 0.01095094 0.032 0.01658797 0.0101367 0 0.01658797 0.0101367 0.032 0.01707263 0.009297257 0.032 0.01707263 0.009297257 0 0.01751484 0.0084347 0 0.01751484 0.0084347 0.032 0.0179135 0.007551172 0 0.0179135 0.007551172 0.032 0.01826762 0.006648871 0 0.01826762 0.006648871 0.032 0.01857634 0.005730041 0 0.01857634 0.005730041 0.032 0.01883886 0.004796964 0 0.01883886 0.004796964 0.032 0.01905455 0.003851961 0 0.01905455 0.003851961 0.032 0.01922287 0.002897382 0 0.01922287 0.002897382 0.032 0.0193434 0.001935599 0 0.0193434 0.001935599 0.032 0.01941583 0.000969004 0.032 0.01941583 0.000969004 0</float_array>
          <technique_common>
            <accessor count="252" source="#cubeverts-array0-array" stride="3">
              <param type="float" name="X"/>
              <param type="float" name="Y"/>
              <param type="float" name="Z"/>
            </accessor>
          </technique_common>
        </source>
        <source id="cubenormals-array0">
          <float_array count="1500" id="cubenormals-array0-array">0.9996892 -0.02493137 0 0.9996892 -0.02493137 0 0.9972038 -0.07472917 0 0.9972038 -0.07472917 0 0.9922392 -0.124344 0 0.9922392 -0.124344 0 0.9848078 -0.1736478 0 0.9848078 -0.1736478 0 0.9749279 -0.2225209 0 0.9749279 -0.2225209 0 0.9479269 -0.3184878 0 0.9626242 -0.2708408 0 0.9626242 -0.2708408 0 0.9479269 -0.3184878 0 0.9115059 -0.4112868 0 0.9308741 -0.3653401 0 0.9308741 -0.3653401 0 0.9115059 -0.4112868 0 0.8660251 -0.5000005 0 0.8898718 -0.4562106 0 0.8898718 -0.4562106 0 0.8660251 -0.5000005 0 0.8400263 -0.5425459 0 0.8119377 -0.583744 0 0.8400263 -0.5425459 0 0.8119377 -0.583744 0 0.7818315 -0.6234898 0 0.7818315 -0.6234898 0 0.7497811 -0.6616859 0 0.7497811 -0.6616859 0 0.7158669 -0.6982368 0 0.7158669 -0.6982368 0 0.6801726 -0.7330519 0 0.6427876 -0.7660444 0 0.6801726 -0.7330519 0 0.6427876 -0.7660444 0 0.6038043 -0.7971326 0 0.6038043 -0.7971326 0 0.5633208 -0.8262383 0 0.5633208 -0.8262383 0 0.4782549 -0.8782211 0 0.5214342 -0.8532915 0 0.5214342 -0.8532915 0 0.4782549 -0.8782211 0 0.4338828 -0.9009693 0 0.4338828 -0.9009693 0 0.3884353 -0.921476 0 0.3884353 -0.921476 0 0.3420202 -0.9396926 0 0.3420202 -0.9396926 0 0.2947549 -0.9555729 0 0.2947549 -0.9555729 0 0.1981463 -0.9801724 0 0.2467576 -0.9690773 0 0.2467576 -0.9690773 0 0.1981463 -0.9801724 0 0.1490412 -0.988831 0 0.1490412 -0.988831 0 0.09956806 -0.9950308 0 0.09956806 -0.9950308 0 0.04984699 -0.9987569 0 0.04984699 -0.9987569 0 0 -1 0 0 -1 0 -0.04984699 -0.9987569 0 -0.04984699 -0.9987569 0 -0.09956806 -0.9950308 0 -0.09956806 -0.9950308 0 -0.1490412 -0.988831 0 -0.1490412 -0.988831 0 -0.1981463 -0.9801724 0 -0.1981463 -0.9801724 0 -0.2467576 -0.9690773 0 -0.2467576 -0.9690773 0 -0.2947549 -0.9555729 0 -0.2947549 -0.9555729 0 -0.3420202 -0.9396926 0 -0.3420202 -0.9396926 0 -0.3884353 -0.921476 0 -0.3884353 -0.921476 0 -0.4338828 -0.9009693 0 -0.4338828 -0.9009693 0 -0.4782549 -0.8782211 0 -0.4782549 -0.8782211 0 -0.5633208 -0.8262383 0 -0.5214342 -0.8532915 0 -0.5214342 -0.8532915 0 -0.5633208 -0.8262383 0 -0.6038043 -0.7971326 0 -0.6038043 -0.7971326 0 -0.6427876 -0.7660444 0 -0.6427876 -0.7660444 0 -0.6801726 -0.7330519 0 -0.6801726 -0.7330519 0 -0.7158669 -0.6982368 0 -0.7158669 -0.6982368 0 -0.7818315 -0.6234898 0 -0.7497811 -0.6616859 0 -0.7497811 -0.6616859 0 -0.7818315 -0.6234898 0 -0.8119377 -0.583744 0 -0.8119377 -0.583744 0 -0.8400263 -0.5425459 0 -0.8400263 -0.5425459 0 -0.8660251 -0.5000005 0 -0.8660251 -0.5000005 0 -0.8898718 -0.4562106 0 -0.8898718 -0.4562106 0 -0.9115059 -0.4112868 0 -0.9115059 -0.4112868 0 -0.9308741 -0.3653401 0 -0.9308741 -0.3653401 0 -0.9479269 -0.3184878 0 -0.9479269 -0.3184878 0 -0.9626242 -0.2708408 0 -0.9626242 -0.2708408 0 -0.9749279 -0.2225209 0 -0.9749279 -0.2225209 0 -0.9848078 -0.1736478 0 -0.9848078 -0.1736478 0 -0.9922392 -0.124344 0 -0.9922392 -0.124344 0 -0.9972038 -0.07472917 0 -0.9972038 -0.07472917 0 -0.9996892 -0.02493137 0 -0.9996892 -0.02493137 0 -0.9996892 0.02493137 0 -0.9996892 0.02493137 0 -0.9972038 0.07472917 0 -0.9972038 0.07472917 0 -0.9922392 0.124344 0 -0.9922392 0.124344 0 -0.9848078 0.1736478 0 -0.9848078 0.1736478 0 -0.9749279 0.2225209 0 -0.9749279 0.2225209 0 -0.9626242 0.2708408 0 -0.9626242 0.2708408 0 -0.9479269 0.3184878 0 -0.9479269 0.3184878 0 -0.9308741 0.3653401 0 -0.9308741 0.3653401 0 -0.9115059 0.4112868 0 -0.9115059 0.4112868 0 -0.8898718 0.4562106 0 -0.8898718 0.4562106 0 -0.8660251 0.5000005 0 -0.8660251 0.5000005 0 -0.8400263 0.5425459 0 -0.8400263 0.5425459 0 -0.8119377 0.583744 0 -0.8119377 0.583744 0 -0.7818315 0.6234898 0 -0.7818315 0.6234898 0 -0.7497811 0.6616859 0 -0.7497811 0.6616859 0 -0.7158669 0.6982368 0 -0.7158669 0.6982368 0 -0.6427876 0.7660444 0 -0.6801726 0.7330519 0 -0.6801726 0.7330519 0 -0.6427876 0.7660444 0 -0.6038043 0.7971326 0 -0.6038043 0.7971326 0 -0.5633208 0.8262383 0 -0.5633208 0.8262383 0 -0.5214342 0.8532915 0 -0.5214342 0.8532915 0 -0.4782549 0.8782211 0 -0.4782549 0.8782211 0 -0.3884353 0.921476 0 -0.4338828 0.9009693 0 -0.4338828 0.9009693 0 -0.3884353 0.921476 0 -0.3420202 0.9396926 0 -0.3420202 0.9396926 0 -0.2947549 0.9555729 0 -0.2947549 0.9555729 0 -0.2467576 0.9690773 0 -0.2467576 0.9690773 0 -0.1981463 0.9801724 0 -0.1981463 0.9801724 0 -0.1490412 0.988831 0 -0.1490412 0.988831 0 -0.09956806 0.9950308 0 -0.09956806 0.9950308 0 -0.04984699 0.9987569 0 -0.04984699 0.9987569 0 0 1 0 0 1 -0 0.04984699 0.9987569 0 0.04984699 0.9987569 -0 0.09956806 0.9950308 0 0.09956806 0.9950308 -0 0.1490412 0.988831 0 0.1490412 0.988831 -0 0.1981463 0.9801724 0 0.1981463 0.9801724 -0 0.2467576 0.9690773 -0 0.2467576 0.9690773 0 0.2947549 0.9555729 0 0.2947549 0.9555729 -0 0.3420202 0.9396926 -0 0.3420202 0.9396926 0 0.3884353 0.921476 -0 0.3884353 0.921476 0 0.4338828 0.9009693 -0 0.4338828 0.9009693 0 0.4782549 0.8782211 -0 0.4782549 0.8782211 0 0.5214342 0.8532915 -0 0.5214342 0.8532915 0 0.5633208 0.8262383 -0 0.5633208 0.8262383 0 0.6038043 0.7971326 -0 0.6038043 0.7971326 0 0.6427876 0.7660444 -0 0.6427876 0.7660444 0 0.6801726 0.7330519 -0 0.6801726 0.7330519 0 0.7158669 0.6982368 -0 0.7158669 0.6982368 0 0.7497811 0.6616859 -0 0.7497811 0.6616859 0 0.7818315 0.6234898 0 0.7818315 0.6234898 -0 0.8119377 0.583744 0 0.8119377 0.583744 -0 0.8400263 0.5425459 0 0.8660251 0.5000005 -0 0.8400263 0.5425459 -0 0.8660251 0.5000005 -0 0.8898718 0.4562106 0 0.8898718 0.4562106 -0 0.9115059 0.4112868 0 0.9115059 0.4112868 -0 0.9308741 0.3653401 0 0.9308741 0.3653401 -0 0.9479269 0.3184878 -0 0.9479269 0.3184878 0 0.9626242 0.2708408 0 0.9626242 0.2708408 -0 0.9749279 0.2225209 -0 0.9749279 0.2225209 0 0.9848078 0.1736478 -0 0.9848078 0.1736478 0 0.9972038 0.07472917 -0 0.9922392 0.124344 -0 0.9922392 0.124344 0 0.9972038 0.07472917 -0 0.9996892 0.02493137 -0 0.9996892 0.02493137 0 0 0 -1 0 0 -1 0 0 -1 0 0 -1 0 0 -1 0 0 -1 0 0 -1 0 0 -1 0 0 -1 0 0 -1 0 0 -1 0 0 -1 0 0 -1 0 0 -1 0 0 -1 0 0 -1 0 0 -1 0 0 -1 0 0 -1 0 0 -1 0 0 -1 0 0 -1 0 0 -1 0 0 -1 0 0 -1 0 0 -1 0 0 -1 0 0 -1 0 0 -1 0 0 -1 0 0 -1 0 0 -1 0 0 -1 0 0 -1 0 0 -1 0 0 -1 0 -0 -1 0 0 -1 0 0 -1 0 0 -1 0 0 -1 0 -0 -1 0 0 -1 0 0 -1 0 -0 -1 0 -0 -1 0 -0 -1 0 0 -1 0 -0 -1 0 -0 -1 0 0 -1 0 0 -1 0 -0 -1 0 -0 -1 0 -0 -1 0 -0 -1 0 0 -1 0 0 -1 0 0 -1 0 0 -1 0 -0 -1 0 0 -1 0 -0 -1 0 -0 -1 0 0 -1 0 -0 -1 0 -0 -1 0 0 -1 0 0 -1 0 -0 -1 0 -0 -1 0 -0 -1 0 0 -1 0 0 -1 0 0 -1 0 0 -1 0 -0 -1 0 -0 -1 0 -0 -1 0 0 -1 0 0 -1 0 0 -1 0 0 -1 0 0 -1 0 -0 -1 0 0 -1 0 0 -1 0 0 -1 -0 -0 -1 0 -0 -1 0 0 -1 0 0 -1 0 -0 -1 0 -0 -1 -0 -0 -1 -0 -0 -1 0 0 -1 0 0 -1 -0 -0 -1 0 0 -1 0 0 -1 -0 -0 -1 0 0 -1 0 0 -1 -0 -0 -1 0 0 -1 -0 -0 -1 -0 -0 -1 0 0 -1 -0 -0 -1 -0 -0 -1 0 -0 -1 0 0 -1 -0 -0 -1 -0 -0 -1 0 0 -1 0 0 -1 0 0 -1 0 -0 -1 0 0 -1 -0 -0 -1 -0 -0 -1 0 0 -1 0 -0 -1 0 0 1 0 0 1 0 0 1 0 0 1 0 0 1 0 0 1 0 0 1 0 0 1 0 0 1 0 0 1 0 0 1 0 0 1 0 0 1 0 0 1 0 0 1 0 0 1 0 0 1 0 0 1 0 0 1 0 0 1 0 0 1 0 0 1 0 0 1 0 0 1 0 0 1 0 0 1 0 0 1 0 0 1 0 0 1 0 0 1 0 0 1 0 0 1 0 0 1 0 0 1 0 0 1 0 0 1 0 0 1 0 0 1 0 0 1 0 0 1 0 0 1 0 0 1 0 0 1 0 0 1 0 0 1 0 0 1 0 0 1 0 0 1 0 0 1 0 0 1 0 0 1 0 0 1 0 0 1 0 0 1 0 0 1 0 0 1 0 0 1 0 0 1 0 0 1 0 0 1 0 0 1 0 0 1 0 0 1 0 0 1 0 0 1 0 0 1 0 0 1 0 0 1 0 0 1 0 0 1 0 0 1 0 0 1 0 0 1 0 0 1 0 0 1 0 0 1 0 0 1 0 0 1 0 0 1 0 0 1 0 0 1 0 0 1 0 0 1 0 0 1 0 0 1 0 0 1 0 0 1 0 0 1 0 0 1 0 0 1 0 0 1 0 0 1 0 0 1 0 0 1 0 0 1 0 0 1 0 0 1 0 0 1 0 0 1 0 0 1 0 0 1 0 0 1 0 0 1 0 0 1 0 0 1 0 0 1 0 0 1 0 0 1 0 0 1 0 0 1 0 0 1 0 0 1 0 0 1 0 0 1 0 0 1 0 0 1 0 0 1 0 0 1 0 0 1 0 0 1 0 0 1 0 0 1 0 0 1 0 0 1</float_array>
          <technique_common>
            <accessor count="500" source="#cubenormals-array0-array" stride="3">
              <param type="float" name="X"/>
              <param type="float" name="Y"/>
              <param type="float" name="Z"/>
            </accessor>
          </technique_common>
        </source>
        <vertices id="cubeverts-array0-vertices">
          <input semantic="POSITION" source="#cubeverts-array0"/>
        </vertices>
        <triangles count="500" material="ref_Part__Feature">
          <input offset="0" semantic="VERTEX" source="#cubeverts-array0-vertices"/>
          <input offset="1" semantic="NORMAL" source="#cubenormals-array0"/>
          <p>0 0 1 0 2 0 0 1 2 1 3 1 4 2 3 2 5 2 4 3 0 3 3 3 6 4 5 4 7 4 6 5 4 5 5 5 8 6 7 6 9 6 8 7 6 7 7 7 10 8 9 8 11 8 10 9 8 9 9 9 12 10 13 10 14 10 12 11 11 11 13 11 12 12 10 12 11 12 15 13 12 13 14 13 16 14 17 14 18 14 16 15 14 15 17 15 16 16 15 16 14 16 19 17 16 17 18 17 20 18 21 18 22 18 20 19 18 19 21 19 20 20 19 20 18 20 23 21 20 21 22 21 24 22 23 22 22 22 24 23 25 23 26 23 24 24 22 24 25 24 27 25 24 25 26 25 28 26 27 26 26 26 28 27 26 27 29 27 30 28 28 28 29 28 30 29 29 29 31 29 32 30 30 30 31 30 32 31 31 31 33 31 34 32 32 32 33 32 34 33 35 33 36 33 34 34 33 34 35 34 37 35 34 35 36 35 38 36 36 36 39 36 38 37 37 37 36 37 40 38 39 38 41 38 40 39 38 39 39 39 42 40 43 40 44 40 42 41 41 41 43 41 42 42 40 42 41 42 45 43 42 43 44 43 46 44 44 44 47 44 46 45 45 45 44 45 48 46 47 46 49 46 48 47 46 47 47 47 50 48 49 48 51 48 50 49 48 49 49 49 52 50 51 50 53 50 52 51 50 51 51 51 54 52 55 52 56 52 54 53 53 53 55 53 54 54 52 54 53 54 57 55 54 55 56 55 58 56 56 56 59 56 58 57 57 57 56 57 60 58 59 58 61 58 60 59 58 59 59 59 62 60 61 60 63 60 62 61 60 61 61 61 64 62 63 62 65 62 64 63 62 63 63 63 66 64 65 64 67 64 66 65 64 65 65 65 68 66 67 66 69 66 68 67 66 67 67 67 70 68 69 68 71 68 70 69 68 69 69 69 72 70 70 70 71 70 72 71 71 71 73 71 74 72 72 72 73 72 74 73 73 73 75 73 76 74 74 74 75 74 76 75 75 75 77 75 78 76 77 76 79 76 78 77 76 77 77 77 80 78 79 78 81 78 80 79 78 79 79 79 82 80 81 80 83 80 82 81 80 81 81 81 84 82 83 82 85 82 84 83 82 83 83 83 86 84 87 84 88 84 86 85 85 85 87 85 86 86 84 86 85 86 89 87 86 87 88 87 90 88 88 88 91 88 90 89 89 89 88 89 92 90 91 90 93 90 92 91 90 91 91 91 94 92 93 92 95 92 94 93 92 93 93 93 96 94 95 94 97 94 96 95 94 95 95 95 98 96 99 96 100 96 98 97 97 97 99 97 98 98 96 98 97 98 101 99 98 99 100 99 102 100 100 100 103 100 102 101 101 101 100 101 104 102 103 102 105 102 104 103 102 103 103 103 106 104 104 104 105 104 106 105 105 105 107 105 108 106 106 106 107 106 108 107 107 107 109 107 110 108 108 108 109 108 110 109 109 109 111 109 112 110 110 110 111 110 112 111 111 111 113 111 114 112 112 112 113 112 114 113 113 113 115 113 116 114 114 114 115 114 116 115 115 115 117 115 118 116 117 116 119 116 118 117 116 117 117 117 120 118 119 118 121 118 120 119 118 119 119 119 122 120 121 120 123 120 122 121 120 121 121 121 124 122 122 122 123 122 124 123 123 123 125 123 126 124 124 124 125 124 126 125 125 125 127 125 128 126 126 126 127 126 128 127 127 127 129 127 130 128 128 128 129 128 130 129 129 129 131 129 132 130 130 130 131 130 132 131 131 131 133 131 134 132 132 132 133 132 134 133 133 133 135 133 136 134 134 134 135 134 136 135 135 135 137 135 138 136 136 136 137 136 138 137 137 137 139 137 140 138 138 138 139 138 140 139 139 139 141 139 142 140 140 140 141 140 142 141 141 141 143 141 144 142 142 142 143 142 144 143 143 143 145 143 146 144 144 144 145 144 146 145 145 145 147 145 148 146 146 146 147 146 148 147 147 147 149 147 150 148 148 148 149 148 150 149 149 149 151 149 152 150 150 150 151 150 152 151 151 151 153 151 154 152 152 152 153 152 154 153 153 153 155 153 156 154 154 154 155 154 156 155 155 155 157 155 158 156 156 156 157 156 158 157 157 157 159 157 160 158 161 158 162 158 160 159 159 159 161 159 160 160 158 160 159 160 163 161 160 161 162 161 164 162 162 162 165 162 164 163 163 163 162 163 166 164 165 164 167 164 166 165 164 165 165 165 168 166 167 166 169 166 168 167 166 167 167 167 170 168 169 168 171 168 170 169 168 169 169 169 172 170 173 170 174 170 172 171 171 171 173 171 172 172 170 172 171 172 175 173 172 173 174 173 176 174 175 174 174 174 176 175 174 175 177 175 178 176 176 176 177 176 178 177 177 177 179 177 180 178 178 178 179 178 180 179 179 179 181 179 182 180 180 180 181 180 182 181 181 181 183 181 184 182 182 182 183 182 184 183 183 183 185 183 186 184 184 184 185 184 186 185 185 185 187 185 188 186 186 186 187 186 188 187 187 187 189 187 190 188 188 188 189 188 190 189 189 189 191 189 192 190 190 190 191 190 192 191 191 191 193 191 194 192 192 192 193 192 194 193 193 193 195 193 196 194 194 194 195 194 196 195 195 195 197 195 198 196 196 196 197 196 198 197 197 197 199 197 200 198 199 198 201 198 200 199 198 199 199 199 202 200 200 200 201 200 202 201 201 201 203 201 204 202 203 202 205 202 204 203 202 203 203 203 206 204 205 204 207 204 206 205 204 205 205 205 208 206 207 206 209 206 208 207 206 207 207 207 210 208 209 208 211 208 210 209 208 209 209 209 212 210 211 210 213 210 212 211 210 211 211 211 214 212 213 212 215 212 214 213 212 213 213 213 216 214 215 214 217 214 216 215 214 215 215 215 218 216 217 216 219 216 218 217 216 217 217 217 220 218 219 218 221 218 220 219 218 219 219 219 222 220 221 220 223 220 222 221 220 221 221 221 224 222 223 222 225 222 224 223 222 223 223 223 226 224 224 224 225 224 226 225 225 225 227 225 228 226 226 226 227 226 228 227 227 227 229 227 230 228 228 228 229 228 230 229 231 229 232 229 230 230 229 230 231 230 233 231 230 231 232 231 234 232 233 232 232 232 234 233 232 233 235 233 236 234 234 234 235 234 236 235 235 235 237 235 238 236 236 236 237 236 238 237 237 237 239 237 240 238 239 238 241 238 240 239 238 239 239 239 242 240 240 240 241 240 242 241 241 241 243 241 244 242 243 242 245 242 244 243 242 243 243 243 246 244 245 244 247 244 246 245 244 245 245 245 248 246 249 246 250 246 248 247 247 247 249 247 248 248 246 248 247 248 251 249 248 249 250 249 1 250 250 250 2 250 1 251 251 251 250 251 98 252 90 252 96 252 96 253 90 253 94 253 94 254 90 254 92 254 90 255 86 255 89 255 102 256 104 256 101 256 101 257 104 257 98 257 90 258 84 258 86 258 106 259 108 259 104 259 84 260 80 260 82 260 112 261 114 261 110 261 80 262 74 262 78 262 78 263 74 263 76 263 104 264 122 264 98 264 108 265 122 265 104 265 120 266 122 266 118 266 118 267 122 267 116 267 114 268 122 268 110 268 116 269 122 269 114 269 110 270 122 270 108 270 74 271 66 271 72 271 72 272 66 272 70 272 70 273 66 273 68 273 66 274 62 274 64 274 126 275 128 275 124 275 124 276 130 276 122 276 128 277 130 277 124 277 98 278 132 278 90 278 90 279 132 279 84 279 84 280 132 280 80 280 122 281 132 281 98 281 80 282 132 282 74 282 130 283 132 283 122 283 74 284 57 284 66 284 66 285 57 285 62 285 62 286 57 286 60 286 60 287 57 287 58 287 134 288 136 288 132 288 74 289 52 289 57 289 57 290 52 290 54 290 74 291 50 291 52 291 50 292 46 292 48 292 136 293 46 293 132 293 132 294 46 294 74 294 74 295 46 295 50 295 142 296 144 296 140 296 140 297 144 297 138 297 138 298 144 298 136 298 45 299 40 299 42 299 148 300 150 300 146 300 152 301 154 301 150 301 40 302 34 302 38 302 38 303 34 303 37 303 144 304 156 304 136 304 154 305 156 305 150 305 150 306 156 306 146 306 146 307 156 307 144 307 46 308 32 308 45 308 45 309 32 309 40 309 40 310 32 310 34 310 46 311 30 311 32 311 158 312 160 312 156 312 46 313 28 313 30 313 163 314 164 314 160 314 164 315 166 315 160 315 27 316 23 316 24 316 166 317 168 317 160 317 168 318 170 318 160 318 23 319 16 319 20 319 20 320 16 320 19 320 175 321 176 321 172 321 172 322 176 322 170 322 170 323 176 323 160 323 16 324 10 324 15 324 15 325 10 325 12 325 23 326 8 326 16 326 16 327 8 327 10 327 180 328 182 328 178 328 178 329 184 329 176 329 182 330 184 330 178 330 8 331 4 331 6 331 23 332 0 332 8 332 8 333 0 333 4 333 28 334 0 334 27 334 27 335 0 335 23 335 186 336 188 336 184 336 0 337 251 337 1 337 46 338 251 338 28 338 28 339 251 339 0 339 190 340 192 340 188 340 188 341 192 341 184 341 46 342 248 342 251 342 136 343 248 343 46 343 156 344 248 344 136 344 192 345 198 345 184 345 196 346 198 346 194 346 194 347 198 347 192 347 246 348 240 348 244 348 244 349 240 349 242 349 200 350 202 350 198 350 248 351 238 351 246 351 246 352 238 352 240 352 202 353 204 353 198 353 156 354 236 354 248 354 248 355 236 355 238 355 206 356 208 356 204 356 236 357 233 357 234 357 204 358 210 358 198 358 208 359 210 359 204 359 236 360 230 360 233 360 198 361 212 361 184 361 210 362 212 362 198 362 184 363 212 363 176 363 236 364 228 364 230 364 216 365 218 365 214 365 214 366 218 366 212 366 228 367 222 367 226 367 226 368 222 368 224 368 236 369 222 369 228 369 160 370 220 370 156 370 156 371 220 371 236 371 212 372 220 372 176 372 218 373 220 373 212 373 236 374 220 374 222 374 176 375 220 375 160 375 91 376 99 376 97 376 91 377 97 377 95 377 91 378 95 378 93 378 87 379 91 379 88 379 105 380 103 380 100 380 105 381 100 381 99 381 85 382 91 382 87 382 109 383 107 383 105 383 81 384 85 384 83 384 115 385 113 385 111 385 75 386 81 386 79 386 75 387 79 387 77 387 123 388 105 388 99 388 123 389 109 389 105 389 123 390 121 390 119 390 123 391 119 391 117 391 123 392 115 392 111 392 123 393 117 393 115 393 123 394 111 394 109 394 67 395 75 395 73 395 67 396 73 396 71 396 67 397 71 397 69 397 63 398 67 398 65 398 129 399 127 399 125 399 131 400 125 400 123 400 131 401 129 401 125 401 133 402 99 402 91 402 133 403 91 403 85 403 133 404 85 404 81 404 133 405 123 405 99 405 133 406 81 406 75 406 133 407 131 407 123 407 56 408 75 408 67 408 56 409 67 409 63 409 56 410 63 410 61 410 56 411 61 411 59 411 137 412 135 412 133 412 53 413 75 413 56 413 53 414 56 414 55 414 51 415 75 415 53 415 47 416 51 416 49 416 47 417 137 417 133 417 47 418 133 418 75 418 47 419 75 419 51 419 145 420 143 420 141 420 145 421 141 421 139 421 145 422 139 422 137 422 41 423 44 423 43 423 151 424 149 424 147 424 155 425 153 425 151 425 35 426 41 426 39 426 35 427 39 427 36 427 157 428 145 428 137 428 157 429 155 429 151 429 157 430 151 430 147 430 157 431 147 431 145 431 33 432 47 432 44 432 33 433 44 433 41 433 33 434 41 434 35 434 31 435 47 435 33 435 161 436 159 436 157 436 29 437 47 437 31 437 165 438 162 438 161 438 167 439 165 439 161 439 22 440 26 440 25 440 169 441 167 441 161 441 171 442 169 442 161 442 17 443 22 443 21 443 17 444 21 444 18 444 177 445 174 445 173 445 177 446 173 446 171 446 177 447 171 447 161 447 11 448 17 448 14 448 11 449 14 449 13 449 9 450 22 450 17 450 9 451 17 451 11 451 183 452 181 452 179 452 185 453 179 453 177 453 185 454 183 454 179 454 5 455 9 455 7 455 3 456 22 456 9 456 3 457 9 457 5 457 3 458 29 458 26 458 3 459 26 459 22 459 189 460 187 460 185 460 250 461 3 461 2 461 250 462 47 462 29 462 250 463 29 463 3 463 193 464 191 464 189 464 193 465 189 465 185 465 249 466 47 466 250 466 249 467 137 467 47 467 249 468 157 468 137 468 199 469 193 469 185 469 199 470 197 470 195 470 199 471 195 471 193 471 241 472 247 472 245 472 241 473 245 473 243 473 203 474 201 474 199 474 239 475 249 475 247 475 239 476 247 476 241 476 205 477 203 477 199 477 237 478 157 478 249 478 237 479 249 479 239 479 209 480 207 480 205 480 232 481 237 481 235 481 211 482 205 482 199 482 211 483 209 483 205 483 231 484 237 484 232 484 213 485 199 485 185 485 213 486 211 486 199 486 213 487 185 487 177 487 229 488 237 488 231 488 219 489 217 489 215 489 219 490 215 490 213 490 223 491 229 491 227 491 223 492 227 492 225 492 223 493 237 493 229 493 221 494 161 494 157 494 221 495 157 495 237 495 221 496 213 496 177 496 221 497 219 497 213 497 221 498 237 498 223 498 221 499 177 499 161 499</p>
        </triangles>
      </mesh>
    </geometry>
  </library_geometries>
  <library_materials>
    <material id="mat_Part__Feature" name="Part__Feature">
      <instance_effect url="#effect_Part__Feature"/>
    </material>
  </library_materials>
  <library_visual_scenes>
    <visual_scene id="myscene">
      <node id="node0" name="node0">
        <instance_geometry url="#geometry0">
          <bind_material>
            <technique_common>
              <instance_material symbol="ref_Part__Feature" target="#mat_Part__Feature"/>
            </technique_common>
          </bind_material>
        </instance_geometry>
      </node>
    </visual_scene>
  </library_visual_scenes>
  <scene>
    <instance_visual_scene url="#myscene"/>
  </scene>
</COLLADA>
