<COLLADA xmlns="http://www.collada.org/2005/11/COLLADASchema" version="1.4.1">
  <asset>
    <contributor/>
    <created>2025-01-15T00:52:22.282320</created>
    <modified>2025-01-15T00:52:22.282323</modified>
    <unit name="meter" meter="1.0"/>
    <up_axis>Z_UP</up_axis>
  </asset>
  <library_effects>
    <effect id="effect_Part__Feature" name="effect_Part__Feature">
      <profile_COMMON>
        <technique sid="common">
          <phong>
            <emission>
              <color>0.0 0.0 0.0 1.0</color>
            </emission>
            <ambient>
              <color>0.0 0.0 0.0 1.0</color>
            </ambient>
            <diffuse>
              <color>0.800000011920929 0.800000011920929 0.800000011920929 1.0</color>
            </diffuse>
            <specular>
              <color>1 1 1 1.0</color>
            </specular>
            <shininess>
              <float>0.0</float>
            </shininess>
            <reflective>
              <color>0.0 0.0 0.0 1.0</color>
            </reflective>
            <reflectivity>
              <float>0.0</float>
            </reflectivity>
            <transparent>
              <color>0.0 0.0 0.0 1.0</color>
            </transparent>
            <transparency>
              <float>1.0</float>
            </transparency>
          </phong>
        </technique>
        <extra>
          <technique profile="GOOGLEEARTH">
            <double_sided>0</double_sided>
          </technique>
        </extra>
      </profile_COMMON>
    </effect>
  </library_effects>
  <library_geometries>
    <geometry id="geometry0" name="Part__Feature">
      <mesh>
        <source id="cubeverts-array0">
          <float_array count="780" id="cubeverts-array0-array">-0.025 -0.035 -0.02 -0.025 -0.035 0 -0.025 0.035 -0.02 -0.025 0.035 0 0.025 -0.035 -0.02 0.025 -0.035 0 -0.01374472 -0.01275324 0 -0.01309194 -0.0134225 0 -0.01240661 -0.0140584 0 -0.01436333 -0.01205227 0 -0.01169043 -0.01465934 0 -0.01494623 -0.01132133 0 -0.01094519 -0.01522384 0 -0.01549198 -0.01056225 0 -0.01017274 -0.01575049 0 -0.0159992 -0.00977691 0 -0.009375 -0.01623798 0 -0.01646665 -0.008967262 0 -0.008553949 -0.0166851 0 -0.01689317 -0.00813532 0 -0.007711633 -0.01709073 0 -0.01727768 -0.007283153 0 -0.006850144 -0.01745388 0 -0.01761924 -0.006412878 0 -0.005971625 -0.01777364 0 -0.01791699 -0.005526659 0 -0.005078259 -0.0180492 0 -0.0181702 -0.004626701 0 -0.004172267 -0.0182799 0 -0.01837823 -0.00371524 0 -0.003255903 -0.01846515 0 -0.01854058 -0.002794543 0 -0.002331445 -0.01860448 0 -0.01865683 -0.001866897 0 -0.001401189 -0.01869757 0 -0.01872669 -0.0009346104 0 -0.0004674505 -0.01874417 0 -0.01875 -6.431717e-17 0 0.002331445 -0.01860448 0 0.001401189 -0.01869757 0 0.003255903 -0.01846515 0 0.004172267 -0.0182799 0 0.005078259 -0.0180492 0 0.005971625 -0.01777364 0 0.006850144 -0.01745388 0 0.0004674505 -0.01874417 0 0.007711633 -0.01709073 0 0.008553949 -0.0166851 0 0.009375 -0.01623798 0 0.01017274 -0.01575049 0 0.01094519 -0.01522384 0 0.01169043 -0.01465934 0 0.01240661 -0.0140584 0 0.01309194 -0.0134225 0 0.01374472 -0.01275324 0 0.01436333 -0.01205227 0 0.01494623 -0.01132133 0 0.01549198 -0.01056225 0 0.0159992 -0.00977691 0 0.01646665 -0.008967262 0 0.01689317 -0.00813532 0 0.01727768 -0.007283153 0 -0.008553949 0.0166851 0 -0.007711633 0.01709073 0 -0.009375 0.01623798 0 -0.01017274 0.01575049 0 -0.01094519 0.01522384 0 -0.01169043 0.01465934 0 -0.01240661 0.0140584 0 -0.01309194 0.0134225 0 -0.01374472 0.01275324 0 -0.01436333 0.01205227 0 -0.01494623 0.01132133 0 -0.01549198 0.01056225 0 -0.0159992 0.00977691 0 -0.01646665 0.008967262 0 -0.01689317 0.00813532 0 -0.01727768 0.007283153 0 -0.01761924 0.006412878 0 -0.01791699 0.005526659 0 -0.0181702 0.004626701 0 -0.01837823 0.00371524 0 -0.01854058 0.002794543 0 -0.01865683 0.001866897 0 -0.01872669 0.0009346104 0 -0.006850144 0.01745388 0 0.01761924 -0.006412878 0 -0.005971625 0.01777364 0 0.01791699 -0.005526659 0 -0.005078259 0.0180492 0 0.0181702 -0.004626701 0 -0.004172267 0.0182799 0 0.01837823 -0.00371524 0 -0.003255903 0.01846515 0 0.01854058 -0.002794543 0 -0.002331445 0.01860448 0 0.01865683 -0.001866897 0 -0.001401189 0.01869757 0 0.01872669 -0.0009346104 0 -0.0004674505 0.01874417 0 0.01875 0 0 0.0004674505 0.01874417 0 0.025 0.035 0 0.01872669 0.0009346104 0 0.01865683 0.001866897 0 0.01854058 0.002794543 0 0.01837823 0.00371524 0 0.0181702 0.004626701 0 0.01791699 0.005526659 0 0.01761924 0.006412878 0 0.01727768 0.007283153 0 0.01689317 0.00813532 0 0.01646665 0.008967262 0 0.0159992 0.00977691 0 0.01549198 0.01056225 0 0.01494623 0.01132133 0 0.01436333 0.01205227 0 0.01374472 0.01275324 0 0.01309194 0.0134225 0 0.01240661 0.0140584 0 0.01169043 0.01465934 0 0.01094519 0.01522384 0 0.01017274 0.01575049 0 0.009375 0.01623798 0 0.008553949 0.0166851 0 0.007711633 0.01709073 0 0.006850144 0.01745388 0 0.005971625 0.01777364 0 0.005078259 0.0180492 0 0.004172267 0.0182799 0 0.003255903 0.01846515 0 0.002331445 0.01860448 0 0.001401189 0.01869757 0 0.025 0.035 -0.02 0.01875 0 0.025 0.01872669 -0.0009346104 0.025 0.01865683 -0.001866897 0.025 0.01854058 -0.002794543 0.025 0.01837823 -0.00371524 0.025 0.0181702 -0.004626701 0.025 0.01791699 -0.005526659 0.025 0.01761924 -0.006412878 0.025 0.01727768 -0.007283153 0.025 0.01689317 -0.00813532 0.025 0.01646665 -0.008967262 0.025 0.0159992 -0.00977691 0.025 0.01549198 -0.01056225 0.025 0.01494623 -0.01132133 0.025 0.01436333 -0.01205227 0.025 0.01374472 -0.01275324 0.025 0.01309194 -0.0134225 0.025 0.01240661 -0.0140584 0.025 0.01169043 -0.01465934 0.025 0.01094519 -0.01522384 0.025 0.01017274 -0.01575049 0.025 0.009375 -0.01623798 0.025 0.008553949 -0.0166851 0.025 0.007711633 -0.01709073 0.025 0.006850144 -0.01745388 0.025 0.005971625 -0.01777364 0.025 0.005078259 -0.0180492 0.025 0.004172267 -0.0182799 0.025 0.003255903 -0.01846515 0.025 0.002331445 -0.01860448 0.025 0.001401189 -0.01869757 0.025 0.0004674505 -0.01874417 0.025 -0.0004674505 -0.01874417 0.025 -0.001401189 -0.01869757 0.025 -0.002331445 -0.01860448 0.025 -0.003255903 -0.01846515 0.025 -0.004172267 -0.0182799 0.025 -0.005078259 -0.0180492 0.025 -0.005971625 -0.01777364 0.025 -0.006850144 -0.01745388 0.025 -0.007711633 -0.01709073 0.025 -0.008553949 -0.0166851 0.025 -0.009375 -0.01623798 0.025 -0.01017274 -0.01575049 0.025 -0.01094519 -0.01522384 0.025 -0.01169043 -0.01465934 0.025 -0.01240661 -0.0140584 0.025 -0.01309194 -0.0134225 0.025 -0.01374472 -0.01275324 0.025 -0.01436333 -0.01205227 0.025 -0.01494623 -0.01132133 0.025 -0.01549198 -0.01056225 0.025 -0.0159992 -0.00977691 0.025 -0.01646665 -0.008967262 0.025 -0.01689317 -0.00813532 0.025 -0.01727768 -0.007283153 0.025 -0.01761924 -0.006412878 0.025 -0.01791699 -0.005526659 0.025 -0.0181702 -0.004626701 0.025 -0.01837823 -0.00371524 0.025 -0.01854058 -0.002794543 0.025 -0.01865683 -0.001866897 0.025 -0.01872669 -0.0009346104 0.025 -0.01875 -6.431717e-17 0.025 -0.01872669 0.0009346104 0.025 -0.01865683 0.001866897 0.025 -0.01854058 0.002794543 0.025 -0.01837823 0.00371524 0.025 -0.0181702 0.004626701 0.025 -0.01791699 0.005526659 0.025 -0.01761924 0.006412878 0.025 -0.01727768 0.007283153 0.025 -0.01689317 0.00813532 0.025 -0.01646665 0.008967262 0.025 -0.0159992 0.00977691 0.025 -0.01549198 0.01056225 0.025 -0.01494623 0.01132133 0.025 -0.01436333 0.01205227 0.025 -0.01374472 0.01275324 0.025 -0.01309194 0.0134225 0.025 -0.01240661 0.0140584 0.025 -0.01169043 0.01465934 0.025 -0.01094519 0.01522384 0.025 -0.01017274 0.01575049 0.025 -0.009375 0.01623798 0.025 -0.008553949 0.0166851 0.025 -0.007711633 0.01709073 0.025 -0.006850144 0.01745388 0.025 -0.005971625 0.01777364 0.025 -0.005078259 0.0180492 0.025 -0.004172267 0.0182799 0.025 -0.003255903 0.01846515 0.025 -0.002331445 0.01860448 0.025 -0.001401189 0.01869757 0.025 -0.0004674505 0.01874417 0.025 0.0004674505 0.01874417 0.025 0.001401189 0.01869757 0.025 0.002331445 0.01860448 0.025 0.003255903 0.01846515 0.025 0.004172267 0.0182799 0.025 0.005078259 0.0180492 0.025 0.005971625 0.01777364 0.025 0.006850144 0.01745388 0.025 0.007711633 0.01709073 0.025 0.008553949 0.0166851 0.025 0.009375 0.01623798 0.025 0.01017274 0.01575049 0.025 0.01094519 0.01522384 0.025 0.01169043 0.01465934 0.025 0.01240661 0.0140584 0.025 0.01309194 0.0134225 0.025 0.01374472 0.01275324 0.025 0.01436333 0.01205227 0.025 0.01494623 0.01132133 0.025 0.01549198 0.01056225 0.025 0.0159992 0.00977691 0.025 0.01646665 0.008967262 0.025 0.01689317 0.00813532 0.025 0.01727768 0.007283153 0.025 0.01761924 0.006412878 0.025 0.01791699 0.005526659 0.025 0.0181702 0.004626701 0.025 0.01837823 0.00371524 0.025 0.01854058 0.002794543 0.025 0.01865683 0.001866897 0.025 0.01872669 0.0009346104 0.025</float_array>
          <technique_common>
            <accessor count="260" source="#cubeverts-array0-array" stride="3">
              <param type="float" name="X"/>
              <param type="float" name="Y"/>
              <param type="float" name="Z"/>
            </accessor>
          </technique_common>
        </source>
        <source id="cubenormals-array0">
          <float_array count="1548" id="cubenormals-array0-array">-1 0 0 -1 0 0 0 -1 0 0 -1 0 0 0 1 0 0 1 0 0 1 0 0 1 0 0 1 0 0 1 0 0 1 0 0 1 0 0 1 0 0 1 0 0 1 0 0 1 0 0 1 0 0 1 0 0 1 0 0 1 0 0 1 0 0 1 0 0 1 0 0 1 0 0 1 0 0 1 0 0 1 0 0 1 0 0 1 0 0 1 0 0 1 0 0 1 0 0 1 0 0 1 0 0 1 0 0 1 0 0 1 0 0 1 0 0 1 0 0 1 0 0 1 0 0 1 0 0 1 0 0 1 0 0 1 0 0 1 0 0 1 0 0 1 0 0 1 0 0 1 0 0 1 0 0 1 0 0 1 0 0 1 0 0 1 0 0 1 0 0 1 0 0 1 0 0 1 0 0 1 0 0 1 0 0 1 0 0 1 0 0 1 0 0 1 0 0 1 0 0 1 0 0 1 0 0 1 0 0 1 0 0 1 0 0 1 0 0 1 0 0 1 0 0 1 0 0 1 0 0 1 0 0 1 0 0 1 0 0 1 0 0 1 0 0 1 0 0 1 0 0 1 0 0 1 0 0 1 0 0 1 0 0 1 0 0 1 0 0 1 0 0 1 0 0 1 0 0 1 0 0 1 0 0 1 0 0 1 0 0 1 0 0 1 0 0 1 0 0 1 0 0 1 0 0 1 0 0 1 0 0 1 0 0 1 0 0 1 0 0 1 0 0 1 0 0 1 0 0 1 0 0 1 0 0 1 0 0 1 0 0 1 0 0 1 0 0 1 0 0 1 0 0 1 0 0 1 0 0 1 0 0 1 0 0 1 0 0 1 0 0 1 0 0 1 0 0 1 0 0 1 0 0 1 0 0 1 0 0 1 0 0 1 0 0 1 0 0 1 0 -0 1 0 1 0 0 1 0 0 0 -1 0 0 -1 1 0 0 1 -0 0 0.9996892 -0.02493077 0 0.9972038 -0.07472907 0 0.9996892 -0.02493077 0 0.9972038 -0.07472907 0 0.9922392 -0.1243437 0 0.9922392 -0.1243437 0 0.9848077 -0.1736483 0 0.9848077 -0.1736483 0 0.9749275 -0.2225223 0 0.9749275 -0.2225223 0 0.9626245 -0.2708397 0 0.9626245 -0.2708397 0 0.9479271 -0.3184875 0 0.9479271 -0.3184875 0 0.9308742 -0.3653399 0 0.9308742 -0.3653399 0 0.9115053 -0.4112884 0 0.9115053 -0.4112884 0 0.889872 -0.4562104 0 0.889872 -0.4562104 0 0.8660254 -0.4999999 0 0.8660254 -0.4999999 0 0.840026 -0.5425461 0 0.8119383 -0.5837432 0 0.840026 -0.5425461 0 0.8119383 -0.5837432 0 0.7818316 -0.6234896 0 0.7818316 -0.6234896 0 0.7497806 -0.6616865 0 0.7158669 -0.6982368 0 0.7497806 -0.6616865 0 0.7158669 -0.6982368 0 0.6801728 -0.7330518 0 0.6801728 -0.7330518 0 0.6427873 -0.7660446 0 0.6038052 -0.797132 0 0.6427873 -0.7660446 0 0.6038052 -0.797132 0 0.5633201 -0.8262388 0 0.5633201 -0.8262388 0 0.4782543 -0.8782215 0 0.5214346 -0.8532913 0 0.5214346 -0.8532913 0 0.4782543 -0.8782215 0 0.4338834 -0.900969 0 0.4338834 -0.900969 0 0.3884346 -0.9214763 0 0.3884346 -0.9214763 0 0.3420207 -0.9396924 0 0.3420207 -0.9396924 0 0.2947544 -0.955573 0 0.2947544 -0.955573 0 0.1981466 -0.9801724 0 0.2467574 -0.9690773 0 0.2467574 -0.9690773 0 0.1981466 -0.9801724 0 0.149042 -0.9888309 0 0.149042 -0.9888309 0 0.04984726 -0.9987569 0 0.09956802 -0.9950308 0 0.09956802 -0.9950308 0 0.04984726 -0.9987569 0 -0.04984726 -0.9987569 0 0 -1 0 0 -1 0 -0.04984726 -0.9987569 0 -0.149042 -0.9888309 0 -0.09956802 -0.9950308 0 -0.09956802 -0.9950308 0 -0.149042 -0.9888309 0 -0.1981466 -0.9801724 0 -0.1981466 -0.9801724 0 -0.2467574 -0.9690773 0 -0.2467574 -0.9690773 0 -0.2947544 -0.955573 0 -0.2947544 -0.955573 0 -0.3884346 -0.9214763 0 -0.3420207 -0.9396924 0 -0.3420207 -0.9396924 0 -0.3884346 -0.9214763 0 -0.4338834 -0.900969 0 -0.4338834 -0.900969 0 -0.4782543 -0.8782215 0 -0.4782543 -0.8782215 0 -0.5214346 -0.8532913 0 -0.5214346 -0.8532913 0 -0.5633201 -0.8262388 0 -0.5633201 -0.8262388 0 -0.6038052 -0.797132 0 -0.6038052 -0.797132 0 -0.6427873 -0.7660446 0 -0.6427873 -0.7660446 0 -0.6801728 -0.7330518 0 -0.6801728 -0.7330518 0 -0.7158669 -0.6982368 0 -0.7158669 -0.6982368 0 -0.7497806 -0.6616865 0 -0.7497806 -0.6616865 0 -0.7818316 -0.6234896 0 -0.7818316 -0.6234896 0 -0.8119383 -0.5837432 0 -0.8119383 -0.5837432 0 -0.840026 -0.5425461 0 -0.840026 -0.5425461 0 -0.8660254 -0.4999999 0 -0.8660254 -0.4999999 0 -0.889872 -0.4562104 0 -0.889872 -0.4562104 0 -0.9115053 -0.4112884 0 -0.9115053 -0.4112884 0 -0.9308742 -0.3653399 0 -0.9308742 -0.3653399 0 -0.9479271 -0.3184875 0 -0.9479271 -0.3184875 0 -0.9626245 -0.2708397 0 -0.9626245 -0.2708397 0 -0.9749275 -0.2225223 0 -0.9749275 -0.2225223 0 -0.9848077 -0.1736483 0 -0.9848077 -0.1736483 0 -0.9922392 -0.1243437 0 -0.9922392 -0.1243437 0 -0.9972038 -0.07472907 0 -0.9972038 -0.07472907 0 -0.9996892 -0.02493077 0 -0.9996892 0.02493077 0 -0.9996892 -0.02493077 0 -0.9996892 0.02493077 0 -0.9972038 0.07472907 0 -0.9972038 0.07472907 0 -0.9922392 0.1243437 0 -0.9922392 0.1243437 0 -0.9848077 0.1736483 0 -0.9848077 0.1736483 0 -0.9749275 0.2225223 0 -0.9749275 0.2225223 0 -0.9626245 0.2708397 0 -0.9626245 0.2708397 0 -0.9479271 0.3184875 0 -0.9479271 0.3184875 0 -0.9308742 0.3653399 0 -0.9308742 0.3653399 0 -0.9115053 0.4112884 0 -0.9115053 0.4112884 0 -0.889872 0.4562104 0 -0.889872 0.4562104 0 -0.8660254 0.4999999 0 -0.8660254 0.4999999 0 -0.840026 0.5425461 0 -0.840026 0.5425461 0 -0.8119383 0.5837432 0 -0.8119383 0.5837432 0 -0.7818316 0.6234896 0 -0.7818316 0.6234896 0 -0.7497806 0.6616865 0 -0.7497806 0.6616865 0 -0.7158669 0.6982368 0 -0.7158669 0.6982368 0 -0.6801728 0.7330518 0 -0.6801728 0.7330518 0 -0.6427873 0.7660446 0 -0.6427873 0.7660446 0 -0.6038052 0.797132 0 -0.6038052 0.797132 0 -0.5633201 0.8262388 0 -0.5633201 0.8262388 0 -0.5214346 0.8532913 0 -0.5214346 0.8532913 0 -0.4782543 0.8782215 0 -0.4782543 0.8782215 0 -0.4338834 0.900969 0 -0.4338834 0.900969 0 -0.3884346 0.9214763 0 -0.3884346 0.9214763 0 -0.3420207 0.9396924 0 -0.3420207 0.9396924 0 -0.2947544 0.955573 0 -0.2467574 0.9690773 0 -0.2947544 0.955573 0 -0.2467574 0.9690773 0 -0.1981466 0.9801724 0 -0.1981466 0.9801724 0 -0.149042 0.9888309 0 -0.149042 0.9888309 0 -0.09956802 0.9950308 0 -0.09956802 0.9950308 0 -0.04984726 0.9987569 0 -0.04984726 0.9987569 0 0 1 0 0 1 -0 0.04984726 0.9987569 0 0.04984726 0.9987569 -0 0.09956802 0.9950308 0 0.09956802 0.9950308 -0 0.149042 0.9888309 0 0.149042 0.9888309 -0 0.1981466 0.9801724 0 0.1981466 0.9801724 -0 0.2467574 0.9690773 -0 0.2467574 0.9690773 0 0.2947544 0.955573 -0 0.2947544 0.955573 0 0.3420207 0.9396924 -0 0.3420207 0.9396924 0 0.3884346 0.9214763 -0 0.3884346 0.9214763 0 0.4338834 0.900969 -0 0.4338834 0.900969 0 0.5214346 0.8532913 -0 0.4782543 0.8782215 -0 0.4782543 0.8782215 0 0.5214346 0.8532913 -0 0.5633201 0.8262388 -0 0.5633201 0.8262388 0 0.6038052 0.797132 -0 0.6038052 0.797132 0 0.6801728 0.7330518 -0 0.6427873 0.7660446 -0 0.6427873 0.7660446 0 0.6801728 0.7330518 -0 0.7158669 0.6982368 -0 0.7158669 0.6982368 0 0.7497806 0.6616865 -0 0.7497806 0.6616865 0 0.7818316 0.6234896 0 0.8119383 0.5837432 -0 0.7818316 0.6234896 -0 0.8119383 0.5837432 -0 0.840026 0.5425461 0 0.840026 0.5425461 -0 0.8660254 0.4999999 0 0.889872 0.4562104 -0 0.8660254 0.4999999 -0 0.889872 0.4562104 -0 0.9115053 0.4112884 0 0.9308742 0.3653399 -0 0.9115053 0.4112884 -0 0.9308742 0.3653399 -0 0.9479271 0.3184875 0 0.9479271 0.3184875 -0 0.9626245 0.2708397 -0 0.9626245 0.2708397 0 0.9848077 0.1736483 -0 0.9749275 0.2225223 -0 0.9749275 0.2225223 0 0.9848077 0.1736483 -0 0.9972038 0.07472907 -0 0.9922392 0.1243437 -0 0.9922392 0.1243437 0 0.9972038 0.07472907 -0 0.9996892 0.02493077 -0 0.9996892 0.02493077 0 0 0 1 0 0 1 0 0 1 0 0 1 0 0 1 0 0 1 0 0 1 0 0 1 0 0 1 0 0 1 0 0 1 0 0 1 0 0 1 0 0 1 0 0 1 0 0 1 0 0 1 0 0 1 0 0 1 0 0 1 0 0 1 0 0 1 0 0 1 0 0 1 0 0 1 0 0 1 0 0 1 0 0 1 0 0 1 0 0 1 0 0 1 0 0 1 0 0 1 0 0 1 0 0 1 0 0 1 0 0 1 0 0 1 0 0 1 0 0 1 0 0 1 0 0 1 0 0 1 0 0 1 0 0 1 0 0 1 0 0 1 0 0 1 0 0 1 0 0 1 0 0 1 0 0 1 0 0 1 0 0 1 0 0 1 0 0 1 0 0 1 0 0 1 0 0 1 0 0 1 0 0 1 0 0 1 0 0 1 0 0 1 0 0 1 0 0 1 0 0 1 0 0 1 0 0 1 0 0 1 0 0 1 0 0 1 0 0 1 0 0 1 0 0 1 0 0 1 0 0 1 0 0 1 0 0 1 0 0 1 0 0 1 0 0 1 0 0 1 0 0 1 0 0 1 0 0 1 0 0 1 0 0 1 0 0 1 0 0 1 0 0 1 0 0 1 0 0 1 0 0 1 0 0 1 0 0 1 0 0 1 0 0 1 0 0 1 0 0 1 0 0 1 0 0 1 0 0 1 0 0 1 0 0 1 0 0 1 0 0 1 0 0 1 0 0 1 0 0 1 0 0 1 0 0 1 0 0 1 0 0 1 0 0 1 0 0 1 0 0 1 0 0 1 0 0 1 0 0 1 0 0 1 0 0 1 0 0 1 0 0 1</float_array>
          <technique_common>
            <accessor count="516" source="#cubenormals-array0-array" stride="3">
              <param type="float" name="X"/>
              <param type="float" name="Y"/>
              <param type="float" name="Z"/>
            </accessor>
          </technique_common>
        </source>
        <vertices id="cubeverts-array0-vertices">
          <input semantic="POSITION" source="#cubeverts-array0"/>
        </vertices>
        <triangles count="516" material="ref_Part__Feature">
          <input offset="0" semantic="VERTEX" source="#cubeverts-array0-vertices"/>
          <input offset="1" semantic="NORMAL" source="#cubenormals-array0"/>
          <p>0 0 1 0 2 0 2 1 1 1 3 1 4 2 5 2 0 2 0 3 5 3 1 3 6 4 1 4 7 4 8 5 7 5 1 5 9 6 1 6 6 6 10 7 8 7 1 7 11 8 1 8 9 8 12 9 10 9 1 9 13 10 1 10 11 10 14 11 12 11 1 11 15 12 1 12 13 12 16 13 14 13 1 13 17 14 1 14 15 14 18 15 16 15 1 15 19 16 1 16 17 16 20 17 18 17 1 17 21 18 1 18 19 18 22 19 20 19 1 19 23 20 1 20 21 20 24 21 22 21 1 21 25 22 1 22 23 22 26 23 24 23 1 23 27 24 1 24 25 24 28 25 26 25 1 25 29 26 1 26 27 26 30 27 28 27 1 27 31 28 1 28 29 28 32 29 30 29 1 29 33 30 1 30 31 30 34 31 32 31 1 31 35 32 1 32 33 32 36 33 34 33 1 33 37 34 1 34 35 34 5 35 38 35 39 35 5 36 40 36 38 36 5 37 41 37 40 37 5 38 42 38 41 38 5 39 43 39 42 39 5 40 44 40 43 40 5 41 36 41 1 41 5 42 45 42 36 42 5 43 39 43 45 43 46 44 44 44 5 44 47 45 46 45 5 45 48 46 47 46 5 46 49 47 48 47 5 47 50 48 49 48 5 48 51 49 50 49 5 49 52 50 51 50 5 50 53 51 52 51 5 51 54 52 53 52 5 52 55 53 54 53 5 53 56 54 55 54 5 54 57 55 56 55 5 55 58 56 57 56 5 56 59 57 58 57 5 57 60 58 59 58 5 58 61 59 60 59 5 59 3 60 62 60 63 60 3 61 64 61 62 61 3 62 65 62 64 62 3 63 66 63 65 63 3 64 67 64 66 64 3 65 68 65 67 65 3 66 69 66 68 66 3 67 70 67 69 67 3 68 71 68 70 68 3 69 72 69 71 69 3 70 73 70 72 70 3 71 74 71 73 71 3 72 75 72 74 72 3 73 76 73 75 73 3 74 77 74 76 74 3 75 78 75 77 75 3 76 79 76 78 76 3 77 80 77 79 77 3 78 81 78 80 78 3 79 82 79 81 79 3 80 83 80 82 80 3 81 84 81 83 81 3 82 37 82 84 82 85 83 3 83 63 83 86 84 61 84 5 84 87 85 3 85 85 85 88 86 86 86 5 86 89 87 3 87 87 87 90 88 88 88 5 88 91 89 3 89 89 89 92 90 90 90 5 90 93 91 3 91 91 91 94 92 92 92 5 92 95 93 3 93 93 93 96 94 94 94 5 94 97 95 3 95 95 95 98 96 96 96 5 96 99 97 3 97 97 97 100 98 98 98 5 98 101 99 3 99 99 99 102 100 103 100 100 100 102 101 104 101 103 101 102 102 105 102 104 102 102 103 106 103 105 103 102 104 107 104 106 104 102 105 108 105 107 105 102 106 109 106 108 106 102 107 110 107 109 107 102 108 111 108 110 108 102 109 112 109 111 109 102 110 113 110 112 110 102 111 114 111 113 111 102 112 115 112 114 112 102 113 116 113 115 113 102 114 3 114 101 114 102 115 117 115 116 115 102 116 118 116 117 116 102 117 119 117 118 117 102 118 120 118 119 118 102 119 121 119 120 119 102 120 122 120 121 120 102 121 123 121 122 121 102 122 124 122 123 122 102 123 125 123 124 123 102 124 126 124 125 124 102 125 127 125 126 125 102 126 128 126 127 126 102 127 129 127 128 127 102 128 130 128 129 128 102 129 131 129 130 129 102 130 132 130 131 130 102 131 101 131 132 131 3 132 1 132 37 132 5 133 102 133 100 133 102 134 133 134 2 134 102 135 2 135 3 135 2 136 133 136 0 136 0 137 133 137 4 137 5 138 4 138 133 138 5 139 133 139 102 139 98 140 100 140 134 140 98 141 135 141 136 141 98 142 134 142 135 142 96 143 98 143 136 143 94 144 136 144 137 144 94 145 96 145 136 145 92 146 137 146 138 146 92 147 94 147 137 147 90 148 138 148 139 148 90 149 92 149 138 149 88 150 139 150 140 150 88 151 90 151 139 151 86 152 140 152 141 152 86 153 88 153 140 153 61 154 141 154 142 154 61 155 86 155 141 155 60 156 142 156 143 156 60 157 61 157 142 157 59 158 143 158 144 158 59 159 60 159 143 159 58 160 59 160 144 160 58 161 144 161 145 161 57 162 58 162 145 162 57 163 146 163 147 163 57 164 145 164 146 164 56 165 57 165 147 165 55 166 56 166 147 166 55 167 147 167 148 167 54 168 55 168 148 168 54 169 149 169 150 169 54 170 148 170 149 170 53 171 54 171 150 171 53 172 150 172 151 172 52 173 53 173 151 173 51 174 52 174 151 174 51 175 152 175 153 175 51 176 151 176 152 176 50 177 51 177 153 177 49 178 153 178 154 178 49 179 50 179 153 179 48 180 155 180 156 180 48 181 154 181 155 181 48 182 49 182 154 182 47 183 48 183 156 183 46 184 156 184 157 184 46 185 47 185 156 185 44 186 157 186 158 186 44 187 46 187 157 187 43 188 158 188 159 188 43 189 44 189 158 189 42 190 159 190 160 190 42 191 43 191 159 191 41 192 161 192 162 192 41 193 160 193 161 193 41 194 42 194 160 194 40 195 41 195 162 195 38 196 162 196 163 196 38 197 40 197 162 197 39 198 164 198 165 198 39 199 163 199 164 199 39 200 38 200 163 200 45 201 39 201 165 201 36 202 166 202 167 202 36 203 165 203 166 203 36 204 45 204 165 204 34 205 36 205 167 205 32 206 168 206 169 206 32 207 167 207 168 207 32 208 34 208 167 208 30 209 32 209 169 209 28 210 30 210 169 210 28 211 169 211 170 211 26 212 28 212 170 212 26 213 170 213 171 213 24 214 26 214 171 214 24 215 171 215 172 215 22 216 173 216 174 216 22 217 172 217 173 217 22 218 24 218 172 218 20 219 22 219 174 219 18 220 174 220 175 220 18 221 20 221 174 221 16 222 175 222 176 222 16 223 18 223 175 223 14 224 176 224 177 224 14 225 16 225 176 225 12 226 177 226 178 226 12 227 14 227 177 227 10 228 178 228 179 228 10 229 12 229 178 229 8 230 179 230 180 230 8 231 10 231 179 231 7 232 180 232 181 232 7 233 8 233 180 233 6 234 181 234 182 234 6 235 7 235 181 235 9 236 182 236 183 236 9 237 6 237 182 237 11 238 183 238 184 238 11 239 9 239 183 239 13 240 184 240 185 240 13 241 11 241 184 241 15 242 185 242 186 242 15 243 13 243 185 243 17 244 15 244 186 244 17 245 186 245 187 245 19 246 17 246 187 246 19 247 187 247 188 247 21 248 19 248 188 248 21 249 188 249 189 249 23 250 21 250 189 250 23 251 189 251 190 251 25 252 23 252 190 252 25 253 190 253 191 253 27 254 25 254 191 254 27 255 191 255 192 255 29 256 192 256 193 256 29 257 27 257 192 257 31 258 193 258 194 258 31 259 29 259 193 259 33 260 194 260 195 260 33 261 31 261 194 261 35 262 33 262 195 262 35 263 195 263 196 263 37 264 35 264 196 264 37 265 197 265 198 265 37 266 196 266 197 266 84 267 37 267 198 267 83 268 198 268 199 268 83 269 84 269 198 269 82 270 83 270 199 270 82 271 199 271 200 271 81 272 82 272 200 272 81 273 200 273 201 273 80 274 81 274 201 274 80 275 201 275 202 275 79 276 80 276 202 276 79 277 202 277 203 277 78 278 79 278 203 278 78 279 203 279 204 279 77 280 78 280 204 280 77 281 204 281 205 281 76 282 77 282 205 282 76 283 205 283 206 283 75 284 76 284 206 284 75 285 206 285 207 285 74 286 75 286 207 286 74 287 207 287 208 287 73 288 74 288 208 288 73 289 208 289 209 289 72 290 73 290 209 290 72 291 209 291 210 291 71 292 72 292 210 292 71 293 210 293 211 293 70 294 71 294 211 294 70 295 211 295 212 295 69 296 70 296 212 296 69 297 212 297 213 297 68 298 213 298 214 298 68 299 69 299 213 299 67 300 68 300 214 300 67 301 214 301 215 301 66 302 215 302 216 302 66 303 67 303 215 303 65 304 216 304 217 304 65 305 66 305 216 305 64 306 217 306 218 306 64 307 65 307 217 307 62 308 218 308 219 308 62 309 64 309 218 309 63 310 219 310 220 310 63 311 62 311 219 311 85 312 63 312 220 312 85 313 220 313 221 313 87 314 85 314 221 314 87 315 221 315 222 315 89 316 87 316 222 316 89 317 223 317 224 317 89 318 222 318 223 318 91 319 89 319 224 319 93 320 91 320 224 320 93 321 224 321 225 321 95 322 93 322 225 322 95 323 225 323 226 323 97 324 95 324 226 324 97 325 226 325 227 325 99 326 97 326 227 326 99 327 227 327 228 327 101 328 99 328 228 328 101 329 228 329 229 329 132 330 101 330 229 330 132 331 229 331 230 331 131 332 132 332 230 332 131 333 230 333 231 333 130 334 131 334 231 334 130 335 231 335 232 335 129 336 130 336 232 336 129 337 232 337 233 337 128 338 233 338 234 338 128 339 129 339 233 339 127 340 234 340 235 340 127 341 128 341 234 341 126 342 235 342 236 342 126 343 127 343 235 343 125 344 236 344 237 344 125 345 126 345 236 345 124 346 237 346 238 346 124 347 125 347 237 347 123 348 239 348 240 348 123 349 238 349 239 349 123 350 124 350 238 350 122 351 123 351 240 351 121 352 240 352 241 352 121 353 122 353 240 353 120 354 241 354 242 354 120 355 121 355 241 355 119 356 243 356 244 356 119 357 242 357 243 357 119 358 120 358 242 358 118 359 119 359 244 359 117 360 244 360 245 360 117 361 118 361 244 361 116 362 245 362 246 362 116 363 117 363 245 363 115 364 116 364 246 364 115 365 247 365 248 365 115 366 246 366 247 366 114 367 115 367 248 367 113 368 114 368 248 368 113 369 248 369 249 369 112 370 113 370 249 370 112 371 250 371 251 371 112 372 249 372 250 372 111 373 112 373 251 373 110 374 111 374 251 374 110 375 252 375 253 375 110 376 251 376 252 376 109 377 110 377 253 377 108 378 109 378 253 378 108 379 253 379 254 379 107 380 254 380 255 380 107 381 108 381 254 381 106 382 256 382 257 382 106 383 255 383 256 383 106 384 107 384 255 384 105 385 106 385 257 385 104 386 258 386 259 386 104 387 257 387 258 387 104 388 105 388 257 388 103 389 104 389 259 389 100 390 259 390 134 390 100 391 103 391 259 391 183 392 182 392 181 392 183 393 181 393 180 393 178 394 183 394 180 394 178 395 180 395 179 395 186 396 185 396 184 396 186 397 184 397 183 397 176 398 183 398 178 398 176 399 186 399 183 399 176 400 178 400 177 400 175 401 186 401 176 401 188 402 187 402 186 402 172 403 174 403 173 403 191 404 188 404 186 404 191 405 190 405 189 405 191 406 189 406 188 406 171 407 174 407 172 407 170 408 186 408 175 408 170 409 174 409 171 409 170 410 175 410 174 410 193 411 192 411 191 411 194 412 193 412 191 412 168 413 170 413 169 413 196 414 195 414 194 414 196 415 194 415 191 415 166 416 168 416 167 416 163 417 166 417 165 417 163 418 165 418 164 418 200 419 199 419 198 419 200 420 198 420 197 420 162 421 166 421 163 421 161 422 166 422 162 422 202 423 201 423 200 423 202 424 197 424 196 424 202 425 196 425 191 425 202 426 200 426 197 426 205 427 204 427 203 427 205 428 203 428 202 428 206 429 205 429 202 429 156 430 160 430 159 430 156 431 159 431 158 431 156 432 158 432 157 432 156 433 161 433 160 433 209 434 206 434 202 434 209 435 208 435 207 435 209 436 207 436 206 436 152 437 155 437 154 437 152 438 154 438 153 438 212 439 209 439 202 439 212 440 211 440 210 440 212 441 210 441 209 441 212 442 202 442 191 442 150 443 156 443 155 443 150 444 166 444 161 444 150 445 152 445 151 445 150 446 161 446 156 446 150 447 155 447 152 447 150 448 168 448 166 448 214 449 212 449 191 449 214 450 213 450 212 450 214 451 191 451 186 451 214 452 186 452 170 452 214 453 170 453 168 453 216 454 215 454 214 454 146 455 149 455 148 455 146 456 148 456 147 456 144 457 150 457 149 457 144 458 146 458 145 458 144 459 149 459 146 459 220 460 219 460 218 460 220 461 218 461 217 461 142 462 144 462 143 462 142 463 150 463 144 463 222 464 221 464 220 464 222 465 217 465 216 465 222 466 220 466 217 466 139 467 141 467 140 467 226 468 225 468 224 468 226 469 224 469 223 469 136 470 142 470 141 470 136 471 139 471 138 471 136 472 138 472 137 472 136 473 141 473 139 473 227 474 226 474 223 474 227 475 223 475 222 475 134 476 136 476 135 476 229 477 227 477 222 477 229 478 228 478 227 478 231 479 230 479 229 479 257 480 259 480 258 480 255 481 257 481 256 481 255 482 259 482 257 482 234 483 229 483 222 483 234 484 231 484 229 484 234 485 233 485 232 485 234 486 232 486 231 486 234 487 214 487 168 487 234 488 168 488 150 488 234 489 216 489 214 489 234 490 150 490 142 490 234 491 222 491 216 491 254 492 134 492 259 492 254 493 259 493 255 493 254 494 136 494 134 494 236 495 235 495 234 495 238 496 237 496 236 496 238 497 236 497 234 497 249 498 252 498 251 498 249 499 251 499 250 499 248 500 252 500 249 500 241 501 240 501 239 501 241 502 239 502 238 502 241 503 238 503 234 503 247 504 142 504 136 504 247 505 254 505 253 505 247 506 253 506 252 506 247 507 136 507 254 507 247 508 252 508 248 508 245 509 247 509 246 509 244 510 243 510 242 510 244 511 242 511 241 511 244 512 234 512 142 512 244 513 241 513 234 513 244 514 247 514 245 514 244 515 142 515 247 515</p>
        </triangles>
      </mesh>
    </geometry>
  </library_geometries>
  <library_materials>
    <material id="mat_Part__Feature" name="Part__Feature">
      <instance_effect url="#effect_Part__Feature"/>
    </material>
  </library_materials>
  <library_visual_scenes>
    <visual_scene id="myscene">
      <node id="node0" name="node0">
        <instance_geometry url="#geometry0">
          <bind_material>
            <technique_common>
              <instance_material symbol="ref_Part__Feature" target="#mat_Part__Feature"/>
            </technique_common>
          </bind_material>
        </instance_geometry>
      </node>
    </visual_scene>
  </library_visual_scenes>
  <scene>
    <instance_visual_scene url="#myscene"/>
  </scene>
</COLLADA>
