<COLLADA xmlns="http://www.collada.org/2005/11/COLLADASchema" version="1.4.1">
  <asset>
    <contributor/>
    <created>2025-02-28T09:19:37.223045</created>
    <modified>2025-02-28T09:19:37.223051</modified>
    <unit name="meter" meter="1.0"/>
    <up_axis>Z_UP</up_axis>
  </asset>
  <library_effects>
    <effect id="effect_Part__Feature" name="effect_Part__Feature">
      <profile_COMMON>
        <technique sid="common">
          <phong>
            <emission>
              <color>0.0 0.0 0.0 1.0</color>
            </emission>
            <ambient>
              <color>0.0 0.0 0.0 1.0</color>
            </ambient>
            <diffuse>
              <color>0.800000011920929 0.800000011920929 0.800000011920929 1.0</color>
            </diffuse>
            <specular>
              <color>1 1 1 1.0</color>
            </specular>
            <shininess>
              <float>0.0</float>
            </shininess>
            <reflective>
              <color>0.0 0.0 0.0 1.0</color>
            </reflective>
            <reflectivity>
              <float>0.0</float>
            </reflectivity>
            <transparent>
              <color>0.0 0.0 0.0 1.0</color>
            </transparent>
            <transparency>
              <float>1.0</float>
            </transparency>
          </phong>
        </technique>
        <extra>
          <technique profile="GOOGLEEARTH">
            <double_sided>0</double_sided>
          </technique>
        </extra>
      </profile_COMMON>
    </effect>
  </library_effects>
  <library_geometries>
    <geometry id="geometry0" name="Part__Feature">
      <mesh>
        <source id="cubeverts-array0">
          <float_array count="756" id="cubeverts-array0-array">0 0.03995028 -0.001993835 0 0.04 0 0.02 0.04 0 0.02 0.03995028 -0.001993835 0 0.03980123 -0.003982714 0.02 0.03980123 -0.003982714 0 0.03955323 -0.00596169 0.02 0.03955323 -0.00596169 0.02 0.0392069 -0.007925846 0 0.0392069 -0.007925846 0.02 0.03876309 -0.009870296 0 0.03876309 -0.009870296 0 0.03822291 -0.01179021 0.02 0.03822291 -0.01179021 0.02 0.0375877 -0.01368081 0 0.0375877 -0.01368081 0.02 0.03685905 -0.01553739 0 0.03685905 -0.01553739 0 0.03603875 -0.01735535 0.02 0.03603875 -0.01735535 0.02 0.03512886 -0.01913016 0 0.03512886 -0.01913016 0 0.03413163 -0.02085741 0.02 0.03413163 -0.02085741 0 0.03304955 -0.0225328 0.02 0.03304955 -0.0225328 0 0.0318853 -0.02415218 0.02 0.0318853 -0.02415218 0 0.03064178 -0.0257115 0.02 0.03064178 -0.0257115 0 0.02932207 -0.02720691 0.02 0.02932207 -0.02720691 0.02 0.02792947 -0.02863467 0 0.02792947 -0.02863467 0 0.02646743 -0.02999125 0.02 0.02646743 -0.02999125 0 0.02493959 -0.03127326 0.02 0.02493959 -0.03127326 0 0.02334975 -0.03247752 0.02 0.02334975 -0.03247752 0 0.02170185 -0.03360104 0.02 0.02170185 -0.03360104 0 0.02 -0.03464102 0.02 0.02 -0.03464102 0 0.01824843 -0.03559487 0.02 0.01824843 -0.03559487 0 0.01645148 -0.03646024 0.02 0.01645148 -0.03646024 0 0.01461364 -0.03723495 0.02 0.01461364 -0.03723495 0.02 0.01273947 -0.0379171 0 0.01273947 -0.0379171 0 0.01083362 -0.03850497 0.02 0.01083362 -0.03850497 0 0.008900837 -0.03899712 0.02 0.008900837 -0.03899712 0 0.006945927 -0.03939231 0.02 0.006945927 -0.03939231 0 0.004973748 -0.03968957 0.02 0.004973748 -0.03968957 0 0.002989204 -0.03988815 0.02 0.002989204 -0.03988815 0 0.0009972277 -0.03998757 0.02 0.0009972277 -0.03998757 0 -0.0009972277 -0.03998757 0.02 -0.0009972277 -0.03998757 0 -0.002989204 -0.03988815 0.02 -0.002989204 -0.03988815 0 -0.004973748 -0.03968957 0.02 -0.004973748 -0.03968957 0 -0.006945927 -0.03939231 0.02 -0.006945927 -0.03939231 0 -0.008900837 -0.03899712 0.02 -0.008900837 -0.03899712 0 -0.01083362 -0.03850497 0.02 -0.01083362 -0.03850497 0.02 -0.01273947 -0.0379171 0 -0.01273947 -0.0379171 0 -0.01461364 -0.03723495 0.02 -0.01461364 -0.03723495 0 -0.01645148 -0.03646024 0.02 -0.01645148 -0.03646024 0 -0.01824843 -0.03559487 0.02 -0.01824843 -0.03559487 0.02 -0.02 -0.03464102 0 -0.02 -0.03464102 0 -0.02170185 -0.03360104 0.02 -0.02170185 -0.03360104 0.02 -0.02334975 -0.03247752 0 -0.02334975 -0.03247752 0 -0.02493959 -0.03127326 0.02 -0.02493959 -0.03127326 0.02 -0.02646743 -0.02999125 0 -0.02646743 -0.02999125 0 -0.02792947 -0.02863467 0.02 -0.02792947 -0.02863467 0.02 -0.02932207 -0.02720691 0 -0.02932207 -0.02720691 0 -0.03064178 -0.0257115 0.02 -0.03064178 -0.0257115 0 -0.0318853 -0.02415218 0.02 -0.0318853 -0.02415218 0 -0.03304955 -0.0225328 0.02 -0.03304955 -0.0225328 0.02 -0.03413163 -0.02085741 0 -0.03413163 -0.02085741 0 -0.03512886 -0.01913016 0.02 -0.03512886 -0.01913016 0 -0.03603875 -0.01735535 0.02 -0.03603875 -0.01735535 0.02 -0.03685905 -0.01553739 0 -0.03685905 -0.01553739 0 -0.0375877 -0.01368081 0.02 -0.0375877 -0.01368081 0 -0.03822291 -0.01179021 0.02 -0.03822291 -0.01179021 0 -0.03876309 -0.009870296 0.02 -0.03876309 -0.009870296 0 -0.0392069 -0.007925846 0.02 -0.0392069 -0.007925846 0 -0.03955323 -0.00596169 0.02 -0.03955323 -0.00596169 0.02 -0.03980123 -0.003982714 0 -0.03980123 -0.003982714 0 -0.03995028 -0.001993835 0.02 -0.03995028 -0.001993835 0 -0.04 -1.3721e-16 0.02 -0.04 -1.3721e-16 0 -0.03995028 0.001993835 0.02 -0.03995028 0.001993835 0.02 -0.03980123 0.003982714 0 -0.03980123 0.003982714 0 -0.03955323 0.00596169 0.02 -0.03955323 0.00596169 0 -0.0392069 0.007925846 0.02 -0.0392069 0.007925846 0 -0.03876309 0.009870296 0.02 -0.03876309 0.009870296 0 -0.03822291 0.01179021 0.02 -0.03822291 0.01179021 0 -0.0375877 0.01368081 0.02 -0.0375877 0.01368081 0.02 -0.03685905 0.01553739 0 -0.03685905 0.01553739 0 -0.03603875 0.01735535 0.02 -0.03603875 0.01735535 0 -0.03512886 0.01913016 0.02 -0.03512886 0.01913016 0.02 -0.03413163 0.02085741 0 -0.03413163 0.02085741 0 -0.03304955 0.0225328 0.02 -0.03304955 0.0225328 0.02 -0.0318853 0.02415218 0 -0.0318853 0.02415218 0 -0.03064178 0.0257115 0.02 -0.03064178 0.0257115 0 -0.02932207 0.02720691 0.02 -0.02932207 0.02720691 0 -0.02792947 0.02863467 0.02 -0.02792947 0.02863467 0 -0.02646743 0.02999125 0.02 -0.02646743 0.02999125 0.02 -0.02493959 0.03127326 0 -0.02493959 0.03127326 0 -0.02334975 0.03247752 0.02 -0.02334975 0.03247752 0 -0.02170185 0.03360104 0.02 -0.02170185 0.03360104 0 -0.02 0.03464102 0.02 -0.02 0.03464102 0 -0.01824843 0.03559487 0.02 -0.01824843 0.03559487 0 -0.01645148 0.03646024 0.02 -0.01645148 0.03646024 0 -0.01461364 0.03723495 0.02 -0.01461364 0.03723495 0 -0.01273947 0.0379171 0.02 -0.01273947 0.0379171 0 -0.01083362 0.03850497 0.02 -0.01083362 0.03850497 0 -0.008900837 0.03899712 0.02 -0.008900837 0.03899712 0 -0.006945927 0.03939231 0.02 -0.006945927 0.03939231 0 -0.004973748 0.03968957 0.02 -0.004973748 0.03968957 0 -0.002989204 0.03988815 0.02 -0.002989204 0.03988815 0 -0.0009972277 0.03998757 0.02 -0.0009972277 0.03998757 0 0.0009972277 0.03998757 0.02 0.0009972277 0.03998757 0 0.002989204 0.03988815 0.02 0.002989204 0.03988815 0 0.004973748 0.03968957 0.02 0.004973748 0.03968957 0 0.006945927 0.03939231 0.02 0.006945927 0.03939231 0 0.008900837 0.03899712 0.02 0.008900837 0.03899712 0 0.01083362 0.03850497 0.02 0.01083362 0.03850497 0.02 0.01273947 0.0379171 0 0.01273947 0.0379171 0.02 0.01461364 0.03723495 0 0.01461364 0.03723495 0 0.01645148 0.03646024 0.02 0.01645148 0.03646024 0 0.01824843 0.03559487 0.02 0.01824843 0.03559487 0 0.02 0.03464102 0.02 0.02 0.03464102 0 0.02170185 0.03360104 0.02 0.02170185 0.03360104 0 0.02334975 0.03247752 0.02 0.02334975 0.03247752 0 0.02493959 0.03127326 0.02 0.02493959 0.03127326 0 0.02646743 0.02999125 0.02 0.02646743 0.02999125 0 0.02792947 0.02863467 0.02 0.02792947 0.02863467 0 0.02932207 0.02720691 0.02 0.02932207 0.02720691 0 0.03064178 0.0257115 0.02 0.03064178 0.0257115 0 0.0318853 0.02415218 0.02 0.0318853 0.02415218 0.02 0.03304955 0.0225328 0 0.03304955 0.0225328 0 0.03413163 0.02085741 0.02 0.03413163 0.02085741 0 0.03512886 0.01913016 0.02 0.03512886 0.01913016 0 0.03603875 0.01735535 0.02 0.03603875 0.01735535 0 0.03685905 0.01553739 0.02 0.03685905 0.01553739 0 0.0375877 0.01368081 0.02 0.0375877 0.01368081 0 0.03822291 0.01179021 0.02 0.03822291 0.01179021 0 0.03876309 0.009870296 0.02 0.03876309 0.009870296 0 0.0392069 0.007925846 0.02 0.0392069 0.007925846 0 0.03955323 0.00596169 0.02 0.03955323 0.00596169 0 0.03980123 0.003982714 0.02 0.03980123 0.003982714 0 0.03995028 0.001993835 0.02 0.03995028 0.001993835</float_array>
          <technique_common>
            <accessor count="252" source="#cubeverts-array0-array" stride="3">
              <param type="float" name="X"/>
              <param type="float" name="Y"/>
              <param type="float" name="Z"/>
            </accessor>
          </technique_common>
        </source>
        <source id="cubenormals-array0">
          <float_array count="1500" id="cubenormals-array0-array">0 0.9996891 -0.0249314 0 0.9996891 -0.0249314 0 0.9972039 -0.0747292 0 0.9972039 -0.0747292 0 0.9848076 -0.1736495 0 0.9922392 -0.1243434 0 0.9922392 -0.1243434 0 0.9749282 -0.2225198 0 0.9848076 -0.1736495 0 0.9749282 -0.2225198 0 0.9479272 -0.3184869 0 0.9626241 -0.2708409 0 0.9626241 -0.2708409 0 0.9308736 -0.3653413 0 0.9479272 -0.3184869 0 0.9308736 -0.3653413 0 0.8898723 -0.4562098 0 0.911506 -0.4112867 0 0.911506 -0.4112867 0 0.8898723 -0.4562098 0 0.8660248 -0.5000011 0 0.8660248 -0.5000011 0 0.8400258 -0.5425464 0 0.8400258 -0.5425464 0 0.8119382 -0.5837435 0 0.8119382 -0.5837435 0 0.7818314 -0.6234898 0 0.7818314 -0.6234898 0 0.7497814 -0.6616856 0 0.7158667 -0.6982369 0 0.7497814 -0.6616856 0 0.7158667 -0.6982369 0 0.6801727 -0.7330518 0 0.6801727 -0.7330518 0 0.6427881 -0.766044 0 0.6427881 -0.766044 0 0.6038039 -0.7971328 0 0.6038039 -0.7971328 0 0.56332 -0.8262388 0 0.56332 -0.8262388 0 0.5214361 -0.8532903 0 0.5214361 -0.8532903 0 0.478253 -0.8782221 0 0.478253 -0.8782221 0 0.4338848 -0.9009684 0 0.4338848 -0.9009684 0 0.3420202 -0.9396926 0 0.3884345 -0.9214763 0 0.3884345 -0.9214763 0 0.3420202 -0.9396926 0 0.294755 -0.9555728 0 0.294755 -0.9555728 0 0.2467568 -0.9690774 0 0.2467568 -0.9690774 0 0.1981468 -0.9801723 0 0.1981468 -0.9801723 0 0.1490414 -0.988831 0 0.1490414 -0.988831 0 0.09956878 -0.9950306 0 0.09956878 -0.9950306 0 0.04984561 -0.9987569 0 0.04984561 -0.9987569 0 0 -1 0 0 -1 0 -0.04984561 -0.9987569 0 -0.04984561 -0.9987569 0 -0.09956878 -0.9950306 0 -0.09956878 -0.9950306 0 -0.1490414 -0.988831 0 -0.1490414 -0.988831 0 -0.1981468 -0.9801723 0 -0.1981468 -0.9801723 0 -0.2467568 -0.9690774 0 -0.294755 -0.9555728 0 -0.2467568 -0.9690774 0 -0.294755 -0.9555728 0 -0.3420202 -0.9396926 0 -0.3420202 -0.9396926 0 -0.3884345 -0.9214763 0 -0.3884345 -0.9214763 0 -0.478253 -0.8782221 0 -0.4338848 -0.9009684 0 -0.4338848 -0.9009684 0 -0.478253 -0.8782221 0 -0.56332 -0.8262388 0 -0.5214361 -0.8532903 0 -0.5214361 -0.8532903 0 -0.56332 -0.8262388 0 -0.6427881 -0.766044 0 -0.6038039 -0.7971328 0 -0.6038039 -0.7971328 0 -0.6427881 -0.766044 0 -0.7158667 -0.6982369 0 -0.6801727 -0.7330518 0 -0.6801727 -0.7330518 0 -0.7158667 -0.6982369 0 -0.7497814 -0.6616856 0 -0.7497814 -0.6616856 0 -0.7818314 -0.6234898 0 -0.7818314 -0.6234898 0 -0.8400258 -0.5425464 0 -0.8119382 -0.5837435 0 -0.8119382 -0.5837435 0 -0.8400258 -0.5425464 0 -0.8660248 -0.5000011 0 -0.8660248 -0.5000011 0 -0.8898723 -0.4562098 0 -0.911506 -0.4112867 0 -0.8898723 -0.4562098 0 -0.911506 -0.4112867 0 -0.9308736 -0.3653413 0 -0.9308736 -0.3653413 0 -0.9479272 -0.3184869 0 -0.9479272 -0.3184869 0 -0.9626241 -0.2708409 0 -0.9626241 -0.2708409 0 -0.9749282 -0.2225198 0 -0.9749282 -0.2225198 0 -0.9922392 -0.1243434 0 -0.9848076 -0.1736495 0 -0.9848076 -0.1736495 0 -0.9922392 -0.1243434 0 -0.9972039 -0.0747292 0 -0.9972039 -0.0747292 0 -0.9996891 -0.0249314 0 -0.9996891 -0.0249314 0 -0.9996891 0.0249314 0 -0.9972039 0.0747292 0 -0.9996891 0.0249314 0 -0.9972039 0.0747292 0 -0.9922392 0.1243434 0 -0.9922392 0.1243434 0 -0.9848076 0.1736495 0 -0.9848076 0.1736495 0 -0.9749282 0.2225198 0 -0.9749282 0.2225198 0 -0.9626241 0.2708409 0 -0.9626241 0.2708409 0 -0.9479272 0.3184869 0 -0.9308736 0.3653413 0 -0.9479272 0.3184869 0 -0.9308736 0.3653413 0 -0.911506 0.4112867 0 -0.911506 0.4112867 0 -0.8898723 0.4562098 0 -0.8660248 0.5000011 0 -0.8898723 0.4562098 0 -0.8660248 0.5000011 0 -0.8400258 0.5425464 0 -0.8119382 0.5837435 0 -0.8400258 0.5425464 0 -0.8119382 0.5837435 0 -0.7818314 0.6234898 0 -0.7818314 0.6234898 0 -0.7497814 0.6616856 0 -0.7497814 0.6616856 0 -0.7158667 0.6982369 0 -0.7158667 0.6982369 0 -0.6427881 0.766044 0 -0.6801727 0.7330518 0 -0.6801727 0.7330518 0 -0.6427881 0.766044 0 -0.6038039 0.7971328 0 -0.6038039 0.7971328 0 -0.56332 0.8262388 0 -0.56332 0.8262388 0 -0.5214361 0.8532903 0 -0.5214361 0.8532903 0 -0.478253 0.8782221 0 -0.478253 0.8782221 0 -0.4338848 0.9009684 0 -0.4338848 0.9009684 0 -0.3884345 0.9214763 0 -0.3884345 0.9214763 0 -0.3420202 0.9396926 0 -0.3420202 0.9396926 0 -0.294755 0.9555728 0 -0.294755 0.9555728 0 -0.2467568 0.9690774 0 -0.2467568 0.9690774 0 -0.1981468 0.9801723 0 -0.1981468 0.9801723 0 -0.1490414 0.988831 0 -0.1490414 0.988831 0 -0.09956878 0.9950306 0 -0.09956878 0.9950306 0 -0.04984561 0.9987569 0 -0.04984561 0.9987569 0 0 1 -0 0 1 0 0.04984561 0.9987569 -0 0.04984561 0.9987569 0 0.09956878 0.9950306 -0 0.09956878 0.9950306 0 0.1490414 0.988831 -0 0.1490414 0.988831 0 0.1981468 0.9801723 -0 0.1981468 0.9801723 -0 0.294755 0.9555728 -0 0.2467568 0.9690774 0 0.2467568 0.9690774 -0 0.3420202 0.9396926 -0 0.294755 0.9555728 -0 0.3420202 0.9396926 -0 0.3884345 0.9214763 0 0.3884345 0.9214763 -0 0.4338848 0.9009684 0 0.4338848 0.9009684 -0 0.478253 0.8782221 0 0.478253 0.8782221 -0 0.5214361 0.8532903 0 0.5214361 0.8532903 -0 0.56332 0.8262388 0 0.56332 0.8262388 -0 0.6038039 0.7971328 0 0.6038039 0.7971328 -0 0.6427881 0.766044 0 0.6427881 0.766044 -0 0.6801727 0.7330518 0 0.6801727 0.7330518 -0 0.7158667 0.6982369 0 0.7158667 0.6982369 -0 0.7497814 0.6616856 0 0.7497814 0.6616856 0 0.7818314 0.6234898 -0 0.8119382 0.5837435 -0 0.7818314 0.6234898 -0 0.8119382 0.5837435 0 0.8400258 0.5425464 -0 0.8400258 0.5425464 0 0.8660248 0.5000011 -0 0.8660248 0.5000011 0 0.8898723 0.4562098 -0 0.8898723 0.4562098 0 0.911506 0.4112867 -0 0.911506 0.4112867 0 0.9308736 0.3653413 -0 0.9308736 0.3653413 -0 0.9479272 0.3184869 0 0.9479272 0.3184869 0 0.9626241 0.2708409 -0 0.9626241 0.2708409 -0 0.9749282 0.2225198 0 0.9749282 0.2225198 -0 0.9848076 0.1736495 0 0.9848076 0.1736495 -0 0.9922392 0.1243434 0 0.9922392 0.1243434 -0 0.9996891 0.0249314 -0 0.9972039 0.0747292 0 0.9972039 0.0747292 -0 0.9996891 0.0249314 -1 -0 0 -1 -0 0 -1 -0 0 -1 0 0 -1 0 0 -1 0 0 -1 -0 0 -1 0 0 -1 0 0 -1 0 0 -1 -0 0 -1 -0 0 -1 0 0 -1 -0 0 -1 0 0 -1 0 0 -1 -0 0 -1 -0 0 -1 -0 0 -1 0 0 -1 -0 0 -1 0 0 -1 0 0 -1 0 0 -1 -0 0 -1 -0 0 -1 -0 0 -1 0 0 -1 -0 0 -1 0 0 -1 0 0 -1 0 0 -1 0 0 -1 0 0 -1 0 0 -1 0 0 -1 0 0 -1 0 0 -1 0 0 -1 0 0 -1 0 0 -1 0 0 -1 0 0 -1 -0 0 -1 0 0 -1 0 0 -1 0 0 -1 0 0 -1 -0 0 -1 0 0 -1 0 0 -1 0 0 -1 0 0 -1 0 0 -1 0 0 -1 0 0 -1 0 0 -1 0 0 -1 0 0 -1 0 0 -1 0 0 -1 0 0 -1 0 0 -1 0 0 -1 -0 0 -1 0 0 -1 0 0 -1 0 0 -1 0 0 -1 0 0 -1 0 0 -1 0 0 -1 0 0 -1 0 0 -1 0 0 -1 0 0 -1 0 0 -1 0 0 -1 0 0 -1 0 0 -1 0 0 -1 0 0 -1 0 0 -1 0 0 -1 0 0 -1 0 0 -1 0 0 -1 0 0 -1 0 0 -1 0 0 -1 0 0 -1 0 0 -1 0 -0 -1 0 0 -1 0 0 -1 0 -0 -1 -0 0 -1 0 0 -1 0 0 -1 0 -0 -1 0 -0 -1 0 0 -1 -0 0 -1 0 -0 -1 0 0 -1 0 -0 -1 0 0 -1 0 0 -1 0 0 -1 0 0 -1 0 0 -1 0 0 -1 0 -0 -1 0 -0 -1 0 0 -1 0 0 -1 0 -0 -1 0 0 -1 0 0 -1 0 -0 -1 0 0 -1 0 -0 -1 0 -0 -1 0 0 1 0 0 1 0 0 1 0 0 1 0 0 1 0 0 1 0 0 1 0 0 1 0 0 1 0 0 1 0 0 1 0 0 1 0 0 1 0 0 1 0 0 1 0 0 1 0 0 1 0 0 1 0 0 1 0 0 1 0 0 1 0 0 1 0 0 1 0 0 1 0 0 1 0 0 1 0 0 1 0 0 1 0 0 1 0 0 1 0 0 1 0 0 1 0 0 1 0 0 1 0 0 1 0 0 1 0 0 1 0 0 1 0 0 1 0 0 1 0 0 1 0 0 1 0 0 1 0 0 1 0 0 1 -0 0 1 0 0 1 0 0 1 0 0 1 0 0 1 0 0 1 0 0 1 0 0 1 0 0 1 0 0 1 0 0 1 0 0 1 0 0 1 0 0 1 0 0 1 0 0 1 0 0 1 0 0 1 0 0 1 0 0 1 0 0 1 -0 0 1 0 0 1 0 0 1 0 0 1 0 0 1 0 0 1 0 0 1 0 0 1 0 0 1 0 0 1 0 0 1 0 0 1 0 0 1 0 0 1 0 0 1 0 0 1 0 0 1 0 0 1 0 0 1 0 0 1 0 0 1 0 0 1 0 0 1 0 0 1 0 0 1 0 0 1 0 0 1 0 0 1 0 0 1 0 0 1 0 0 1 0 0 1 0 0 1 0 0 1 0 0 1 0 0 1 0 0 1 0 0 1 0 0 1 0 0 1 0 0 1 0 0 1 -0 0 1 0 0 1 0 0 1 0 0 1 0 0 1 0 0 1 0 0 1 0 0 1 0 0 1 0 0 1 0 0 1 0 0 1 0 0 1 -0 0 1 0 0 1 0 0 1 0 0</float_array>
          <technique_common>
            <accessor count="500" source="#cubenormals-array0-array" stride="3">
              <param type="float" name="X"/>
              <param type="float" name="Y"/>
              <param type="float" name="Z"/>
            </accessor>
          </technique_common>
        </source>
        <vertices id="cubeverts-array0-vertices">
          <input semantic="POSITION" source="#cubeverts-array0"/>
        </vertices>
        <triangles count="500" material="ref_Part__Feature">
          <input offset="0" semantic="VERTEX" source="#cubeverts-array0-vertices"/>
          <input offset="1" semantic="NORMAL" source="#cubenormals-array0"/>
          <p>0 0 1 0 2 0 0 1 2 1 3 1 4 2 3 2 5 2 4 3 0 3 3 3 6 4 7 4 8 4 6 5 5 5 7 5 6 6 4 6 5 6 9 7 8 7 10 7 9 8 6 8 8 8 11 9 9 9 10 9 12 10 13 10 14 10 12 11 10 11 13 11 12 12 11 12 10 12 15 13 14 13 16 13 15 14 12 14 14 14 17 15 15 15 16 15 18 16 19 16 20 16 18 17 16 17 19 17 18 18 17 18 16 18 21 19 18 19 20 19 22 20 21 20 20 20 22 21 20 21 23 21 24 22 22 22 23 22 24 23 23 23 25 23 26 24 24 24 25 24 26 25 25 25 27 25 28 26 26 26 27 26 28 27 27 27 29 27 30 28 28 28 29 28 30 29 31 29 32 29 30 30 29 30 31 30 33 31 30 31 32 31 34 32 33 32 32 32 34 33 32 33 35 33 36 34 34 34 35 34 36 35 35 35 37 35 38 36 37 36 39 36 38 37 36 37 37 37 40 38 39 38 41 38 40 39 38 39 39 39 42 40 41 40 43 40 42 41 40 41 41 41 44 42 43 42 45 42 44 43 42 43 43 43 46 44 45 44 47 44 46 45 44 45 45 45 48 46 49 46 50 46 48 47 47 47 49 47 48 48 46 48 47 48 51 49 48 49 50 49 52 50 50 50 53 50 52 51 51 51 50 51 54 52 53 52 55 52 54 53 52 53 53 53 56 54 55 54 57 54 56 55 54 55 55 55 58 56 57 56 59 56 58 57 56 57 57 57 60 58 59 58 61 58 60 59 58 59 59 59 62 60 61 60 63 60 62 61 60 61 61 61 64 62 63 62 65 62 64 63 62 63 63 63 66 64 65 64 67 64 66 65 64 65 65 65 68 66 67 66 69 66 68 67 66 67 67 67 70 68 69 68 71 68 70 69 68 69 69 69 72 70 70 70 71 70 72 71 71 71 73 71 74 72 72 72 73 72 74 73 75 73 76 73 74 74 73 74 75 74 77 75 74 75 76 75 78 76 76 76 79 76 78 77 77 77 76 77 80 78 79 78 81 78 80 79 78 79 79 79 82 80 83 80 84 80 82 81 81 81 83 81 82 82 80 82 81 82 85 83 82 83 84 83 86 84 87 84 88 84 86 85 84 85 87 85 86 86 85 86 84 86 89 87 86 87 88 87 90 88 91 88 92 88 90 89 88 89 91 89 90 90 89 90 88 90 93 91 90 91 92 91 94 92 95 92 96 92 94 93 92 93 95 93 94 94 93 94 92 94 97 95 94 95 96 95 98 96 96 96 99 96 98 97 97 97 96 97 100 98 99 98 101 98 100 99 98 99 99 99 102 100 103 100 104 100 102 101 101 101 103 101 102 102 100 102 101 102 105 103 102 103 104 103 106 104 105 104 104 104 106 105 104 105 107 105 108 106 106 106 107 106 108 107 109 107 110 107 108 108 107 108 109 108 111 109 108 109 110 109 112 110 111 110 110 110 112 111 110 111 113 111 114 112 112 112 113 112 114 113 113 113 115 113 116 114 114 114 115 114 116 115 115 115 117 115 118 116 117 116 119 116 118 117 116 117 117 117 120 118 121 118 122 118 120 119 119 119 121 119 120 120 118 120 119 120 123 121 120 121 122 121 124 122 123 122 122 122 124 123 122 123 125 123 126 124 124 124 125 124 126 125 125 125 127 125 128 126 126 126 127 126 128 127 129 127 130 127 128 128 127 128 129 128 131 129 128 129 130 129 132 130 131 130 130 130 132 131 130 131 133 131 134 132 132 132 133 132 134 133 133 133 135 133 136 134 134 134 135 134 136 135 135 135 137 135 138 136 136 136 137 136 138 137 137 137 139 137 140 138 138 138 139 138 140 139 141 139 142 139 140 140 139 140 141 140 143 141 140 141 142 141 144 142 143 142 142 142 144 143 142 143 145 143 146 144 144 144 145 144 146 145 147 145 148 145 146 146 145 146 147 146 149 147 146 147 148 147 150 148 149 148 148 148 150 149 151 149 152 149 150 150 148 150 151 150 153 151 150 151 152 151 154 152 153 152 152 152 154 153 152 153 155 153 156 154 154 154 155 154 156 155 155 155 157 155 158 156 156 156 157 156 158 157 157 157 159 157 160 158 161 158 162 158 160 159 159 159 161 159 160 160 158 160 159 160 163 161 160 161 162 161 164 162 162 162 165 162 164 163 163 163 162 163 166 164 165 164 167 164 166 165 164 165 165 165 168 166 167 166 169 166 168 167 166 167 167 167 170 168 169 168 171 168 170 169 168 169 169 169 172 170 171 170 173 170 172 171 170 171 171 171 174 172 172 172 173 172 174 173 173 173 175 173 176 174 174 174 175 174 176 175 175 175 177 175 178 176 176 176 177 176 178 177 177 177 179 177 180 178 178 178 179 178 180 179 179 179 181 179 182 180 180 180 181 180 182 181 181 181 183 181 184 182 182 182 183 182 184 183 183 183 185 183 186 184 184 184 185 184 186 185 185 185 187 185 188 186 186 186 187 186 188 187 187 187 189 187 190 188 188 188 189 188 190 189 189 189 191 189 192 190 190 190 191 190 192 191 191 191 193 191 194 192 192 192 193 192 194 193 193 193 195 193 196 194 194 194 195 194 196 195 195 195 197 195 198 196 196 196 197 196 198 197 197 197 199 197 200 198 201 198 202 198 200 199 199 199 201 199 200 200 198 200 199 200 203 201 202 201 204 201 203 202 200 202 202 202 205 203 203 203 204 203 206 204 204 204 207 204 206 205 205 205 204 205 208 206 207 206 209 206 208 207 206 207 207 207 210 208 209 208 211 208 210 209 208 209 209 209 212 210 211 210 213 210 212 211 210 211 211 211 214 212 213 212 215 212 214 213 212 213 213 213 216 214 215 214 217 214 216 215 214 215 215 215 218 216 217 216 219 216 218 217 216 217 217 217 220 218 219 218 221 218 220 219 218 219 219 219 222 220 221 220 223 220 222 221 220 221 221 221 224 222 223 222 225 222 224 223 222 223 223 223 226 224 224 224 225 224 226 225 227 225 228 225 226 226 225 226 227 226 229 227 226 227 228 227 230 228 229 228 228 228 230 229 228 229 231 229 232 230 230 230 231 230 232 231 231 231 233 231 234 232 232 232 233 232 234 233 233 233 235 233 236 234 234 234 235 234 236 235 235 235 237 235 238 236 236 236 237 236 238 237 237 237 239 237 240 238 239 238 241 238 240 239 238 239 239 239 242 240 240 240 241 240 242 241 241 241 243 241 244 242 243 242 245 242 244 243 242 243 243 243 246 244 245 244 247 244 246 245 244 245 245 245 248 246 247 246 249 246 248 247 246 247 247 247 250 248 251 248 2 248 250 249 249 249 251 249 250 250 248 250 249 250 1 251 250 251 2 251 34 252 36 252 33 252 33 253 36 253 30 253 36 254 38 254 30 254 28 255 24 255 26 255 30 256 22 256 28 256 28 257 22 257 24 257 42 258 44 258 40 258 22 259 18 259 21 259 38 260 18 260 30 260 30 261 18 261 22 261 46 262 48 262 44 262 44 263 48 263 40 263 18 264 15 264 17 264 51 265 52 265 48 265 15 266 11 266 12 266 18 267 11 267 15 267 40 268 54 268 38 268 48 269 54 269 40 269 52 270 54 270 48 270 18 271 9 271 11 271 58 272 60 272 56 272 9 273 1 273 6 273 6 274 1 274 4 274 4 275 1 275 0 275 38 276 64 276 18 276 54 277 64 277 38 277 60 278 64 278 56 278 62 279 64 279 60 279 56 280 64 280 54 280 9 281 250 281 1 281 68 282 70 282 66 282 66 283 70 283 64 283 250 284 244 284 248 284 248 285 244 285 246 285 70 286 74 286 64 286 72 287 74 287 70 287 244 288 238 288 242 288 242 289 238 289 240 289 77 290 78 290 74 290 238 291 232 291 236 291 236 292 232 292 234 292 244 293 232 293 238 293 78 294 85 294 74 294 18 295 85 295 9 295 64 296 85 296 18 296 82 297 85 297 80 297 80 298 85 298 78 298 74 299 85 299 64 299 9 300 85 300 250 300 90 301 93 301 89 301 230 302 222 302 229 302 229 303 222 303 226 303 226 304 222 304 224 304 93 305 94 305 89 305 89 306 94 306 86 306 86 307 94 307 85 307 232 308 220 308 230 308 244 309 220 309 232 309 230 310 220 310 222 310 94 311 97 311 85 311 220 312 216 312 218 312 244 313 216 313 220 313 244 314 214 314 216 314 244 315 212 315 214 315 250 316 105 316 244 316 85 317 105 317 250 317 97 318 105 318 85 318 102 319 105 319 100 319 100 320 105 320 98 320 98 321 105 321 97 321 108 322 111 322 106 322 208 323 205 323 206 323 208 324 203 324 205 324 112 325 114 325 111 325 106 326 114 326 105 326 111 327 114 327 106 327 203 328 198 328 200 328 212 329 196 329 210 329 210 330 196 330 208 330 244 331 196 331 212 331 208 332 196 332 203 332 203 333 196 333 198 333 118 334 120 334 116 334 116 335 120 335 114 335 120 336 123 336 114 336 114 337 123 337 105 337 196 338 192 338 194 338 196 339 190 339 192 339 124 340 126 340 123 340 126 341 128 341 123 341 123 342 132 342 105 342 128 343 132 343 123 343 131 344 132 344 128 344 186 345 182 345 184 345 186 346 180 346 182 346 134 347 136 347 132 347 190 348 178 348 188 348 188 349 178 349 186 349 186 350 178 350 180 350 136 351 138 351 132 351 138 352 140 352 132 352 178 353 174 353 176 353 196 354 144 354 190 354 140 355 144 355 132 355 132 356 144 356 105 356 143 357 144 357 140 357 105 358 144 358 244 358 244 359 144 359 196 359 190 360 170 360 178 360 174 361 170 361 172 361 178 362 170 362 174 362 190 363 168 363 170 363 146 364 149 364 144 364 149 365 150 365 144 365 168 366 164 366 166 366 190 367 164 367 168 367 150 368 153 368 144 368 164 369 160 369 163 369 190 370 160 370 164 370 154 371 156 371 153 371 144 372 158 372 190 372 153 373 158 373 144 373 156 374 158 374 153 374 190 375 158 375 160 375 37 376 35 376 32 376 37 377 32 377 31 377 39 378 37 378 31 378 25 379 29 379 27 379 23 380 31 380 29 380 23 381 29 381 25 381 45 382 43 382 41 382 19 383 23 383 20 383 19 384 39 384 31 384 19 385 31 385 23 385 49 386 47 386 45 386 49 387 45 387 41 387 14 388 19 388 16 388 53 389 50 389 49 389 10 390 14 390 13 390 10 391 19 391 14 391 55 392 41 392 39 392 55 393 49 393 41 393 55 394 53 394 49 394 8 395 19 395 10 395 61 396 59 396 57 396 2 397 8 397 7 397 2 398 7 398 5 398 2 399 5 399 3 399 65 400 39 400 19 400 65 401 55 401 39 401 65 402 61 402 57 402 65 403 63 403 61 403 65 404 57 404 55 404 251 405 8 405 2 405 71 406 69 406 67 406 71 407 67 407 65 407 245 408 251 408 249 408 245 409 249 409 247 409 75 410 71 410 65 410 75 411 73 411 71 411 239 412 245 412 243 412 239 413 243 413 241 413 79 414 76 414 75 414 233 415 239 415 237 415 233 416 237 416 235 416 233 417 245 417 239 417 84 418 79 418 75 418 84 419 19 419 8 419 84 420 65 420 19 420 84 421 83 421 81 421 84 422 81 422 79 422 84 423 75 423 65 423 84 424 8 424 251 424 92 425 91 425 88 425 223 426 231 426 228 426 223 427 228 427 227 427 223 428 227 428 225 428 95 429 92 429 88 429 95 430 88 430 87 430 95 431 87 431 84 431 221 432 233 432 231 432 221 433 245 433 233 433 221 434 231 434 223 434 96 435 95 435 84 435 217 436 221 436 219 436 217 437 245 437 221 437 215 438 245 438 217 438 213 439 245 439 215 439 104 440 251 440 245 440 104 441 84 441 251 441 104 442 96 442 84 442 104 443 103 443 101 443 104 444 101 444 99 444 104 445 99 445 96 445 110 446 109 446 107 446 204 447 209 447 207 447 202 448 209 448 204 448 115 449 113 449 110 449 115 450 107 450 104 450 115 451 110 451 107 451 199 452 202 452 201 452 197 453 213 453 211 453 197 454 211 454 209 454 197 455 245 455 213 455 197 456 209 456 202 456 197 457 202 457 199 457 121 458 119 458 117 458 121 459 117 459 115 459 122 460 121 460 115 460 122 461 115 461 104 461 193 462 197 462 195 462 191 463 197 463 193 463 127 464 125 464 122 464 129 465 127 465 122 465 133 466 122 466 104 466 133 467 129 467 122 467 133 468 130 468 129 468 183 469 187 469 185 469 181 470 187 470 183 470 137 471 135 471 133 471 179 472 191 472 189 472 179 473 189 473 187 473 179 474 187 474 181 474 139 475 137 475 133 475 141 476 139 476 133 476 175 477 179 477 177 477 145 478 197 478 191 478 145 479 141 479 133 479 145 480 133 480 104 480 145 481 142 481 141 481 145 482 104 482 245 482 145 483 245 483 197 483 171 484 191 484 179 484 171 485 175 485 173 485 171 486 179 486 175 486 169 487 191 487 171 487 148 488 147 488 145 488 151 489 148 489 145 489 165 490 169 490 167 490 165 491 191 491 169 491 152 492 151 492 145 492 161 493 165 493 162 493 161 494 191 494 165 494 157 495 155 495 152 495 159 496 145 496 191 496 159 497 152 497 145 497 159 498 157 498 152 498 159 499 191 499 161 499</p>
        </triangles>
      </mesh>
    </geometry>
  </library_geometries>
  <library_materials>
    <material id="mat_Part__Feature" name="Part__Feature">
      <instance_effect url="#effect_Part__Feature"/>
    </material>
  </library_materials>
  <library_visual_scenes>
    <visual_scene id="myscene">
      <node id="node0" name="node0">
        <instance_geometry url="#geometry0">
          <bind_material>
            <technique_common>
              <instance_material symbol="ref_Part__Feature" target="#mat_Part__Feature"/>
            </technique_common>
          </bind_material>
        </instance_geometry>
      </node>
    </visual_scene>
  </library_visual_scenes>
  <scene>
    <instance_visual_scene url="#myscene"/>
  </scene>
</COLLADA>
