<COLLADA xmlns="http://www.collada.org/2005/11/COLLADASchema" version="1.4.1">
  <asset>
    <contributor/>
    <created>2025-01-15T00:54:19.021055</created>
    <modified>2025-01-15T00:54:19.021060</modified>
    <unit name="meter" meter="1.0"/>
    <up_axis>Z_UP</up_axis>
  </asset>
  <library_effects>
    <effect id="effect_Part__Feature" name="effect_Part__Feature">
      <profile_COMMON>
        <technique sid="common">
          <phong>
            <emission>
              <color>0.0 0.0 0.0 1.0</color>
            </emission>
            <ambient>
              <color>0.0 0.0 0.0 1.0</color>
            </ambient>
            <diffuse>
              <color>0.800000011920929 0.800000011920929 0.800000011920929 1.0</color>
            </diffuse>
            <specular>
              <color>1 1 1 1.0</color>
            </specular>
            <shininess>
              <float>0.0</float>
            </shininess>
            <reflective>
              <color>0.0 0.0 0.0 1.0</color>
            </reflective>
            <reflectivity>
              <float>0.0</float>
            </reflectivity>
            <transparent>
              <color>0.0 0.0 0.0 1.0</color>
            </transparent>
            <transparency>
              <float>1.0</float>
            </transparency>
          </phong>
        </technique>
        <extra>
          <technique profile="GOOGLEEARTH">
            <double_sided>0</double_sided>
          </technique>
        </extra>
      </profile_COMMON>
    </effect>
  </library_effects>
  <library_geometries>
    <geometry id="geometry0" name="Part__Feature">
      <mesh>
        <source id="cubeverts-array0">
          <float_array count="756" id="cubeverts-array0-array">-0.001345839 0 0.02696644 0 0 0.027 0 0.04 0.027 -0.001345839 0.04 0.02696644 -0.002688332 0 0.02686583 -0.002688332 0.04 0.02686583 -0.004024141 0 0.02669843 -0.004024141 0.04 0.02669843 -0.005349946 0.04 0.02646466 -0.005349946 0 0.02646466 -0.00666245 0.04 0.02616509 -0.00666245 0 0.02616509 -0.00795839 0 0.02580047 -0.00795839 0.04 0.02580047 -0.009234544 0.04 0.0253717 -0.009234544 0 0.0253717 -0.01048774 0.04 0.02487986 -0.01048774 0 0.02487986 -0.01171486 0 0.02432616 -0.01171486 0.04 0.02432616 -0.01291286 0.04 0.02371198 -0.01291286 0 0.02371198 -0.01407875 0 0.02303885 -0.01407875 0.04 0.02303885 -0.01520964 0 0.02230845 -0.01520964 0.04 0.02230845 -0.01630272 0 0.02152258 -0.01630272 0.04 0.02152258 -0.01735526 0 0.0206832 -0.01735526 0.04 0.0206832 -0.01836466 0 0.0197924 -0.01836466 0.04 0.0197924 -0.01932841 0.04 0.01885239 -0.01932841 0 0.01885239 -0.02024409 0 0.01786552 -0.02024409 0.04 0.01786552 -0.02110945 0 0.01683422 -0.02110945 0.04 0.01683422 -0.02192233 0 0.01576108 -0.02192233 0.04 0.01576108 -0.0226807 0 0.01464875 -0.0226807 0.04 0.01464875 -0.02338269 0 0.0135 -0.02338269 0.04 0.0135 -0.02402654 0 0.01231769 -0.02402654 0.04 0.01231769 -0.02461066 0 0.01110475 -0.02461066 0.04 0.01110475 -0.02513359 0 0.009864207 -0.02513359 0.04 0.009864207 -0.02559404 0.04 0.008599139 -0.02559404 0 0.008599139 -0.02599085 0 0.007312693 -0.02599085 0.04 0.007312693 -0.02632305 0 0.006008065 -0.02632305 0.04 0.006008065 -0.02658981 0 0.004688501 -0.02658981 0.04 0.004688501 -0.02679046 0 0.00335728 -0.02679046 0.04 0.00335728 -0.0269245 0 0.002017713 -0.0269245 0.04 0.002017713 -0.02699161 0 0.0006731287 -0.02699161 0.04 0.0006731287 -0.02699161 0 -0.0006731287 -0.02699161 0.04 -0.0006731287 -0.0269245 0 -0.002017713 -0.0269245 0.04 -0.002017713 -0.02679046 0 -0.00335728 -0.02679046 0.04 -0.00335728 -0.02658981 0 -0.004688501 -0.02658981 0.04 -0.004688501 -0.02632305 0 -0.006008065 -0.02632305 0.04 -0.006008065 -0.02599085 0 -0.007312693 -0.02599085 0.04 -0.007312693 -0.02559404 0.04 -0.008599139 -0.02559404 0 -0.008599139 -0.02513359 0 -0.009864207 -0.02513359 0.04 -0.009864207 -0.02461066 0 -0.01110475 -0.02461066 0.04 -0.01110475 -0.02402654 0 -0.01231769 -0.02402654 0.04 -0.01231769 -0.02338269 0.04 -0.0135 -0.02338269 0 -0.0135 -0.0226807 0 -0.01464875 -0.0226807 0.04 -0.01464875 -0.02192233 0.04 -0.01576108 -0.02192233 0 -0.01576108 -0.02110945 0 -0.01683422 -0.02110945 0.04 -0.01683422 -0.02024409 0.04 -0.01786552 -0.02024409 0 -0.01786552 -0.01932841 0 -0.01885239 -0.01932841 0.04 -0.01885239 -0.01836466 0.04 -0.0197924 -0.01836466 0 -0.0197924 -0.01735526 0 -0.0206832 -0.01735526 0.04 -0.0206832 -0.01630272 0 -0.02152258 -0.01630272 0.04 -0.02152258 -0.01520964 0 -0.02230845 -0.01520964 0.04 -0.02230845 -0.01407875 0.04 -0.02303885 -0.01407875 0 -0.02303885 -0.01291286 0 -0.02371198 -0.01291286 0.04 -0.02371198 -0.01171486 0 -0.02432616 -0.01171486 0.04 -0.02432616 -0.01048774 0.04 -0.02487986 -0.01048774 0 -0.02487986 -0.009234544 0 -0.0253717 -0.009234544 0.04 -0.0253717 -0.00795839 0 -0.02580047 -0.00795839 0.04 -0.02580047 -0.00666245 0 -0.02616509 -0.00666245 0.04 -0.02616509 -0.005349946 0 -0.02646466 -0.005349946 0.04 -0.02646466 -0.004024141 0 -0.02669843 -0.004024141 0.04 -0.02669843 -0.002688332 0.04 -0.02686583 -0.002688332 0 -0.02686583 -0.001345839 0 -0.02696644 -0.001345839 0.04 -0.02696644 -9.261672e-17 0 -0.027 -9.261672e-17 0.04 -0.027 0.001345839 0 -0.02696644 0.001345839 0.04 -0.02696644 0.002688332 0.04 -0.02686583 0.002688332 0 -0.02686583 0.004024141 0 -0.02669843 0.004024141 0.04 -0.02669843 0.005349946 0 -0.02646466 0.005349946 0.04 -0.02646466 0.00666245 0 -0.02616509 0.00666245 0.04 -0.02616509 0.00795839 0 -0.02580047 0.00795839 0.04 -0.02580047 0.009234544 0 -0.0253717 0.009234544 0.04 -0.0253717 0.01048774 0.04 -0.02487986 0.01048774 0 -0.02487986 0.01171486 0 -0.02432616 0.01171486 0.04 -0.02432616 0.01291286 0 -0.02371198 0.01291286 0.04 -0.02371198 0.01407875 0.04 -0.02303885 0.01407875 0 -0.02303885 0.01520964 0 -0.02230845 0.01520964 0.04 -0.02230845 0.01630272 0.04 -0.02152258 0.01630272 0 -0.02152258 0.01735526 0 -0.0206832 0.01735526 0.04 -0.0206832 0.01836466 0 -0.0197924 0.01836466 0.04 -0.0197924 0.01932841 0 -0.01885239 0.01932841 0.04 -0.01885239 0.02024409 0 -0.01786552 0.02024409 0.04 -0.01786552 0.02110945 0.04 -0.01683422 0.02110945 0 -0.01683422 0.02192233 0 -0.01576108 0.02192233 0.04 -0.01576108 0.0226807 0 -0.01464875 0.0226807 0.04 -0.01464875 0.02338269 0 -0.0135 0.02338269 0.04 -0.0135 0.02402654 0 -0.01231769 0.02402654 0.04 -0.01231769 0.02461066 0 -0.01110475 0.02461066 0.04 -0.01110475 0.02513359 0 -0.009864207 0.02513359 0.04 -0.009864207 0.02559404 0 -0.008599139 0.02559404 0.04 -0.008599139 0.02599085 0 -0.007312693 0.02599085 0.04 -0.007312693 0.02632305 0 -0.006008065 0.02632305 0.04 -0.006008065 0.02658981 0 -0.004688501 0.02658981 0.04 -0.004688501 0.02679046 0 -0.00335728 0.02679046 0.04 -0.00335728 0.0269245 0 -0.002017713 0.0269245 0.04 -0.002017713 0.02699161 0 -0.0006731287 0.02699161 0.04 -0.0006731287 0.02699161 0 0.0006731287 0.02699161 0.04 0.0006731287 0.0269245 0 0.002017713 0.0269245 0.04 0.002017713 0.02679046 0 0.00335728 0.02679046 0.04 0.00335728 0.02658981 0 0.004688501 0.02658981 0.04 0.004688501 0.02632305 0 0.006008065 0.02632305 0.04 0.006008065 0.02599085 0 0.007312693 0.02599085 0.04 0.007312693 0.02559404 0.04 0.008599139 0.02559404 0 0.008599139 0.02513359 0.04 0.009864207 0.02513359 0 0.009864207 0.02461066 0 0.01110475 0.02461066 0.04 0.01110475 0.02402654 0 0.01231769 0.02402654 0.04 0.01231769 0.02338269 0 0.0135 0.02338269 0.04 0.0135 0.0226807 0 0.01464875 0.0226807 0.04 0.01464875 0.02192233 0 0.01576108 0.02192233 0.04 0.01576108 0.02110945 0 0.01683422 0.02110945 0.04 0.01683422 0.02024409 0 0.01786552 0.02024409 0.04 0.01786552 0.01932841 0 0.01885239 0.01932841 0.04 0.01885239 0.01836466 0 0.0197924 0.01836466 0.04 0.0197924 0.01735526 0 0.0206832 0.01735526 0.04 0.0206832 0.01630272 0 0.02152258 0.01630272 0.04 0.02152258 0.01520964 0.04 0.02230845 0.01520964 0 0.02230845 0.01407875 0 0.02303885 0.01407875 0.04 0.02303885 0.01291286 0 0.02371198 0.01291286 0.04 0.02371198 0.01171486 0 0.02432616 0.01171486 0.04 0.02432616 0.01048774 0 0.02487986 0.01048774 0.04 0.02487986 0.009234544 0 0.0253717 0.009234544 0.04 0.0253717 0.00795839 0 0.02580047 0.00795839 0.04 0.02580047 0.00666245 0 0.02616509 0.00666245 0.04 0.02616509 0.005349946 0 0.02646466 0.005349946 0.04 0.02646466 0.004024141 0 0.02669843 0.004024141 0.04 0.02669843 0.002688332 0 0.02686583 0.002688332 0.04 0.02686583 0.001345839 0 0.02696644 0.001345839 0.04 0.02696644</float_array>
          <technique_common>
            <accessor count="252" source="#cubeverts-array0-array" stride="3">
              <param type="float" name="X"/>
              <param type="float" name="Y"/>
              <param type="float" name="Z"/>
            </accessor>
          </technique_common>
        </source>
        <source id="cubenormals-array0">
          <float_array count="1500" id="cubenormals-array0-array">-0.02493105 0 0.9996892 -0.02493105 0 0.9996892 -0.07472941 0 0.9972039 -0.07472941 0 0.9972039 -0.1736489 0 0.9848077 -0.1243436 0 0.9922392 -0.1243436 0 0.9922392 -0.2225207 0 0.974928 -0.1736489 0 0.9848077 -0.2225207 0 0.974928 -0.3184875 0 0.947927 -0.27084 0 0.9626244 -0.27084 0 0.9626244 -0.3653405 0 0.9308739 -0.3184875 0 0.947927 -0.3653405 0 0.9308739 -0.4562101 0 0.8898721 -0.4112879 0 0.9115055 -0.4112879 0 0.9115055 -0.4562101 0 0.8898721 -0.4999996 0 0.8660257 -0.4999996 0 0.8660257 -0.5425467 0 0.8400256 -0.5425467 0 0.8400256 -0.5837438 0 0.8119379 -0.5837438 0 0.8119379 -0.6234896 0 0.7818317 -0.6234896 0 0.7818317 -0.6616859 0 0.7497811 -0.6982366 0 0.715867 -0.6616859 0 0.7497811 -0.6982366 0 0.715867 -0.7330522 0 0.6801724 -0.7330522 0 0.6801724 -0.7660446 0 0.6427875 -0.7660446 0 0.6427875 -0.7971321 0 0.603805 -0.7971321 0 0.603805 -0.8262388 0 0.56332 -0.8262388 0 0.56332 -0.8532909 0 0.5214353 -0.8532909 0 0.5214353 -0.8782218 0 0.4782536 -0.8782218 0 0.4782536 -0.9009687 0 0.433884 -0.9009687 0 0.433884 -0.9396926 0 0.3420203 -0.9214765 0 0.388434 -0.9214765 0 0.388434 -0.9396926 0 0.3420203 -0.9555728 0 0.2947552 -0.9555728 0 0.2947552 -0.9690772 0 0.2467575 -0.9690772 0 0.2467575 -0.9801725 0 0.1981464 -0.9801725 0 0.1981464 -0.9888308 0 0.1490423 -0.9888308 0 0.1490423 -0.9950307 0 0.09956837 -0.9950307 0 0.09956837 -0.998757 0 0.0498451 -0.998757 0 0.0498451 -1 0 0 -1 0 0 -0.998757 0 -0.0498451 -0.998757 0 -0.0498451 -0.9950307 0 -0.09956837 -0.9950307 0 -0.09956837 -0.9888308 0 -0.1490423 -0.9888308 0 -0.1490423 -0.9801725 0 -0.1981464 -0.9801725 0 -0.1981464 -0.9690772 0 -0.2467575 -0.9555728 0 -0.2947552 -0.9690772 0 -0.2467575 -0.9555728 0 -0.2947552 -0.9396926 0 -0.3420203 -0.9396926 0 -0.3420203 -0.9214765 0 -0.388434 -0.9214765 0 -0.388434 -0.8782218 0 -0.4782536 -0.9009687 0 -0.433884 -0.9009687 0 -0.433884 -0.8782218 0 -0.4782536 -0.8262388 0 -0.56332 -0.8532909 0 -0.5214353 -0.8532909 0 -0.5214353 -0.8262388 0 -0.56332 -0.7660446 0 -0.6427875 -0.7971321 0 -0.603805 -0.7971321 0 -0.603805 -0.7660446 0 -0.6427875 -0.6982366 0 -0.715867 -0.7330522 0 -0.6801724 -0.7330522 0 -0.6801724 -0.6982366 0 -0.715867 -0.6616859 0 -0.7497811 -0.6616859 0 -0.7497811 -0.6234896 0 -0.7818317 -0.6234896 0 -0.7818317 -0.5425467 0 -0.8400256 -0.5837438 0 -0.8119379 -0.5837438 0 -0.8119379 -0.5425467 0 -0.8400256 -0.4999996 0 -0.8660257 -0.4999996 0 -0.8660257 -0.4562101 0 -0.8898721 -0.4112879 0 -0.9115055 -0.4562101 0 -0.8898721 -0.4112879 0 -0.9115055 -0.3653405 0 -0.9308739 -0.3653405 0 -0.9308739 -0.3184875 0 -0.947927 -0.3184875 0 -0.947927 -0.27084 0 -0.9626244 -0.27084 0 -0.9626244 -0.2225207 0 -0.974928 -0.2225207 0 -0.974928 -0.1243436 0 -0.9922392 -0.1736489 0 -0.9848077 -0.1736489 0 -0.9848077 -0.1243436 0 -0.9922392 -0.07472941 0 -0.9972039 -0.07472941 0 -0.9972039 -0.02493105 0 -0.9996892 -0.02493105 0 -0.9996892 0.02493105 0 -0.9996892 0.07472941 0 -0.9972039 0.02493105 0 -0.9996892 0.07472941 0 -0.9972039 0.1243436 0 -0.9922392 0.1243436 0 -0.9922392 0.1736489 0 -0.9848077 0.1736489 0 -0.9848077 0.2225207 0 -0.974928 0.2225207 0 -0.974928 0.27084 0 -0.9626244 0.27084 0 -0.9626244 0.3184875 0 -0.947927 0.3653405 0 -0.9308739 0.3184875 0 -0.947927 0.3653405 0 -0.9308739 0.4112879 0 -0.9115055 0.4112879 0 -0.9115055 0.4562101 0 -0.8898721 0.4999996 0 -0.8660257 0.4562101 0 -0.8898721 0.4999996 0 -0.8660257 0.5425467 0 -0.8400256 0.5837438 0 -0.8119379 0.5425467 0 -0.8400256 0.5837438 0 -0.8119379 0.6234896 0 -0.7818317 0.6234896 0 -0.7818317 0.6616859 0 -0.7497811 0.6616859 0 -0.7497811 0.6982366 0 -0.715867 0.6982366 0 -0.715867 0.7660446 0 -0.6427875 0.7330522 0 -0.6801724 0.7330522 0 -0.6801724 0.7660446 0 -0.6427875 0.7971321 0 -0.603805 0.7971321 0 -0.603805 0.8262388 0 -0.56332 0.8262388 0 -0.56332 0.8532909 0 -0.5214353 0.8532909 0 -0.5214353 0.8782218 0 -0.4782536 0.8782218 0 -0.4782536 0.9009687 0 -0.433884 0.9009687 0 -0.433884 0.9214765 0 -0.388434 0.9214765 0 -0.388434 0.9396926 0 -0.3420203 0.9396926 0 -0.3420203 0.9555728 0 -0.2947552 0.9555728 0 -0.2947552 0.9690772 0 -0.2467575 0.9690772 0 -0.2467575 0.9801725 0 -0.1981464 0.9801725 0 -0.1981464 0.9888308 0 -0.1490423 0.9888308 0 -0.1490423 0.9950307 0 -0.09956837 0.9950307 0 -0.09956837 0.998757 0 -0.0498451 0.998757 0 -0.0498451 1 0 0 1 -0 0 0.998757 0 0.0498451 0.998757 -0 0.0498451 0.9950307 0 0.09956837 0.9950307 -0 0.09956837 0.9888308 0 0.1490423 0.9888308 -0 0.1490423 0.9801725 0 0.1981464 0.9801725 -0 0.1981464 0.9555728 -0 0.2947552 0.9690772 -0 0.2467575 0.9690772 0 0.2467575 0.9396926 -0 0.3420203 0.9555728 -0 0.2947552 0.9396926 -0 0.3420203 0.9214765 -0 0.388434 0.9214765 0 0.388434 0.9009687 -0 0.433884 0.9009687 0 0.433884 0.8782218 -0 0.4782536 0.8782218 0 0.4782536 0.8532909 -0 0.5214353 0.8532909 0 0.5214353 0.8262388 -0 0.56332 0.8262388 0 0.56332 0.7971321 -0 0.603805 0.7971321 0 0.603805 0.7660446 -0 0.6427875 0.7660446 0 0.6427875 0.7330522 -0 0.6801724 0.7330522 0 0.6801724 0.6982366 -0 0.715867 0.6982366 0 0.715867 0.6616859 -0 0.7497811 0.6616859 0 0.7497811 0.6234896 0 0.7818317 0.5837438 -0 0.8119379 0.6234896 -0 0.7818317 0.5837438 -0 0.8119379 0.5425467 0 0.8400256 0.5425467 -0 0.8400256 0.4999996 0 0.8660257 0.4999996 -0 0.8660257 0.4562101 0 0.8898721 0.4562101 -0 0.8898721 0.4112879 0 0.9115055 0.4112879 -0 0.9115055 0.3653405 0 0.9308739 0.3653405 -0 0.9308739 0.3184875 -0 0.947927 0.3184875 0 0.947927 0.27084 0 0.9626244 0.27084 -0 0.9626244 0.2225207 -0 0.974928 0.2225207 0 0.974928 0.1736489 -0 0.9848077 0.1736489 0 0.9848077 0.1243436 -0 0.9922392 0.1243436 0 0.9922392 0.02493105 -0 0.9996892 0.07472941 -0 0.9972039 0.07472941 0 0.9972039 0.02493105 -0 0.9996892 0 -1 0 0 -1 0 0 -1 0 0 -1 0 0 -1 0 0 -1 0 0 -1 0 0 -1 0 0 -1 0 0 -1 0 0 -1 0 0 -1 0 0 -1 0 0 -1 0 0 -1 0 0 -1 0 0 -1 0 0 -1 0 0 -1 0 0 -1 0 0 -1 0 0 -1 0 0 -1 0 0 -1 0 0 -1 0 0 -1 0 0 -1 0 -0 -1 0 -0 -1 0 0 -1 0 0 -1 0 0 -1 0 0 -1 0 0 -1 0 0 -1 0 -0 -1 0 0 -1 0 -0 -1 0 0 -1 0 0 -1 0 -0 -1 0 0 -1 0 0 -1 0 0 -1 0 -0 -1 0 -0 -1 0 -0 -1 0 0 -1 0 -0 -1 0 0 -1 0 0 -1 0 0 -1 0 -0 -1 0 -0 -1 0 -0 -1 0 -0 -1 0 -0 -1 0 0 -1 0 0 -1 0 0 -1 0 0 -1 0 0 -1 0 0 -1 0 0 -1 0 -0 -1 0 0 -1 0 0 -1 0 -0 -1 0 0 -1 0 -0 -1 0 -0 -1 0 -0 -1 0 -0 -1 0 0 -1 0 -0 -1 0 0 -1 0 -0 -1 0 -0 -1 0 0 -1 0 0 -1 0 -0 -1 0 0 -1 0 0 -1 0 -0 -1 0 0 -1 0 0 -1 0 -0 -1 0 0 -1 0 0 -1 0 -0 -1 0 0 -1 0 -0 -1 0 -0 -1 -0 -0 -1 -0 0 -1 0 0 -1 0 -0 -1 -0 0 -1 0 -0 -1 0 -0 -1 -0 -0 -1 -0 0 -1 0 0 -1 0 0 -1 0 -0 -1 -0 -0 -1 -0 -0 -1 -0 -0 -1 -0 -0 -1 -0 0 -1 0 0 -1 0 0 -1 0 -0 -1 0 -0 -1 -0 -0 -1 -0 0 -1 0 -0 -1 -0 0 -1 0 0 -1 0 0 -1 0 0 -1 0 -0 -1 -0 -0 -1 -0 0 -1 0 0 1 0 0 1 0 0 1 0 0 1 0 0 1 0 0 1 0 0 1 0 0 1 0 0 1 0 0 1 0 0 1 0 0 1 0 0 1 0 0 1 0 0 1 0 0 1 0 0 1 0 0 1 0 0 1 0 0 1 0 0 1 0 0 1 0 0 1 0 0 1 0 0 1 0 0 1 0 0 1 0 0 1 0 0 1 0 0 1 0 0 1 0 0 1 0 0 1 0 0 1 0 0 1 0 0 1 0 0 1 0 0 1 0 0 1 0 0 1 0 0 1 0 0 1 0 0 1 0 0 1 0 0 1 0 0 1 0 0 1 0 0 1 0 0 1 0 0 1 0 0 1 0 0 1 0 0 1 0 0 1 0 0 1 0 0 1 0 0 1 0 0 1 0 0 1 0 0 1 0 0 1 0 0 1 0 0 1 0 0 1 0 0 1 0 0 1 0 0 1 0 0 1 0 0 1 0 0 1 0 0 1 0 0 1 0 0 1 0 0 1 0 0 1 0 0 1 0 0 1 0 0 1 0 0 1 0 0 1 0 0 1 0 0 1 0 0 1 0 0 1 0 0 1 0 0 1 0 0 1 0 0 1 0 0 1 0 0 1 0 0 1 0 0 1 0 0 1 0 0 1 0 0 1 0 0 1 0 0 1 0 0 1 0 0 1 0 0 1 0 0 1 0 0 1 0 0 1 0 0 1 0 0 1 0 0 1 0 0 1 0 0 1 0 0 1 0 0 1 0 0 1 0 0 1 0 0 1 0 0 1 0 0 1 0 0 1 0 0 1 0 0 1 0 0 1 0 0 1 0 0 1 0 0 1 0 0 1 0 0 1 0</float_array>
          <technique_common>
            <accessor count="500" source="#cubenormals-array0-array" stride="3">
              <param type="float" name="X"/>
              <param type="float" name="Y"/>
              <param type="float" name="Z"/>
            </accessor>
          </technique_common>
        </source>
        <vertices id="cubeverts-array0-vertices">
          <input semantic="POSITION" source="#cubeverts-array0"/>
        </vertices>
        <triangles count="500" material="ref_Part__Feature">
          <input offset="0" semantic="VERTEX" source="#cubeverts-array0-vertices"/>
          <input offset="1" semantic="NORMAL" source="#cubenormals-array0"/>
          <p>0 0 1 0 2 0 0 1 2 1 3 1 4 2 3 2 5 2 4 3 0 3 3 3 6 4 7 4 8 4 6 5 5 5 7 5 6 6 4 6 5 6 9 7 8 7 10 7 9 8 6 8 8 8 11 9 9 9 10 9 12 10 13 10 14 10 12 11 10 11 13 11 12 12 11 12 10 12 15 13 14 13 16 13 15 14 12 14 14 14 17 15 15 15 16 15 18 16 19 16 20 16 18 17 16 17 19 17 18 18 17 18 16 18 21 19 18 19 20 19 22 20 21 20 20 20 22 21 20 21 23 21 24 22 22 22 23 22 24 23 23 23 25 23 26 24 24 24 25 24 26 25 25 25 27 25 28 26 26 26 27 26 28 27 27 27 29 27 30 28 28 28 29 28 30 29 31 29 32 29 30 30 29 30 31 30 33 31 30 31 32 31 34 32 33 32 32 32 34 33 32 33 35 33 36 34 34 34 35 34 36 35 35 35 37 35 38 36 37 36 39 36 38 37 36 37 37 37 40 38 39 38 41 38 40 39 38 39 39 39 42 40 41 40 43 40 42 41 40 41 41 41 44 42 43 42 45 42 44 43 42 43 43 43 46 44 45 44 47 44 46 45 44 45 45 45 48 46 49 46 50 46 48 47 47 47 49 47 48 48 46 48 47 48 51 49 48 49 50 49 52 50 50 50 53 50 52 51 51 51 50 51 54 52 53 52 55 52 54 53 52 53 53 53 56 54 55 54 57 54 56 55 54 55 55 55 58 56 57 56 59 56 58 57 56 57 57 57 60 58 59 58 61 58 60 59 58 59 59 59 62 60 61 60 63 60 62 61 60 61 61 61 64 62 63 62 65 62 64 63 62 63 63 63 66 64 65 64 67 64 66 65 64 65 65 65 68 66 67 66 69 66 68 67 66 67 67 67 70 68 69 68 71 68 70 69 68 69 69 69 72 70 70 70 71 70 72 71 71 71 73 71 74 72 72 72 73 72 74 73 75 73 76 73 74 74 73 74 75 74 77 75 74 75 76 75 78 76 76 76 79 76 78 77 77 77 76 77 80 78 79 78 81 78 80 79 78 79 79 79 82 80 83 80 84 80 82 81 81 81 83 81 82 82 80 82 81 82 85 83 82 83 84 83 86 84 87 84 88 84 86 85 84 85 87 85 86 86 85 86 84 86 89 87 86 87 88 87 90 88 91 88 92 88 90 89 88 89 91 89 90 90 89 90 88 90 93 91 90 91 92 91 94 92 95 92 96 92 94 93 92 93 95 93 94 94 93 94 92 94 97 95 94 95 96 95 98 96 96 96 99 96 98 97 97 97 96 97 100 98 99 98 101 98 100 99 98 99 99 99 102 100 103 100 104 100 102 101 101 101 103 101 102 102 100 102 101 102 105 103 102 103 104 103 106 104 105 104 104 104 106 105 104 105 107 105 108 106 106 106 107 106 108 107 109 107 110 107 108 108 107 108 109 108 111 109 108 109 110 109 112 110 111 110 110 110 112 111 110 111 113 111 114 112 112 112 113 112 114 113 113 113 115 113 116 114 114 114 115 114 116 115 115 115 117 115 118 116 117 116 119 116 118 117 116 117 117 117 120 118 121 118 122 118 120 119 119 119 121 119 120 120 118 120 119 120 123 121 120 121 122 121 124 122 123 122 122 122 124 123 122 123 125 123 126 124 124 124 125 124 126 125 125 125 127 125 128 126 126 126 127 126 128 127 129 127 130 127 128 128 127 128 129 128 131 129 128 129 130 129 132 130 131 130 130 130 132 131 130 131 133 131 134 132 132 132 133 132 134 133 133 133 135 133 136 134 134 134 135 134 136 135 135 135 137 135 138 136 136 136 137 136 138 137 137 137 139 137 140 138 138 138 139 138 140 139 141 139 142 139 140 140 139 140 141 140 143 141 140 141 142 141 144 142 143 142 142 142 144 143 142 143 145 143 146 144 144 144 145 144 146 145 147 145 148 145 146 146 145 146 147 146 149 147 146 147 148 147 150 148 149 148 148 148 150 149 151 149 152 149 150 150 148 150 151 150 153 151 150 151 152 151 154 152 153 152 152 152 154 153 152 153 155 153 156 154 154 154 155 154 156 155 155 155 157 155 158 156 156 156 157 156 158 157 157 157 159 157 160 158 161 158 162 158 160 159 159 159 161 159 160 160 158 160 159 160 163 161 160 161 162 161 164 162 162 162 165 162 164 163 163 163 162 163 166 164 165 164 167 164 166 165 164 165 165 165 168 166 167 166 169 166 168 167 166 167 167 167 170 168 169 168 171 168 170 169 168 169 169 169 172 170 171 170 173 170 172 171 170 171 171 171 174 172 172 172 173 172 174 173 173 173 175 173 176 174 174 174 175 174 176 175 175 175 177 175 178 176 176 176 177 176 178 177 177 177 179 177 180 178 178 178 179 178 180 179 179 179 181 179 182 180 180 180 181 180 182 181 181 181 183 181 184 182 182 182 183 182 184 183 183 183 185 183 186 184 184 184 185 184 186 185 185 185 187 185 188 186 186 186 187 186 188 187 187 187 189 187 190 188 188 188 189 188 190 189 189 189 191 189 192 190 190 190 191 190 192 191 191 191 193 191 194 192 192 192 193 192 194 193 193 193 195 193 196 194 194 194 195 194 196 195 195 195 197 195 198 196 196 196 197 196 198 197 197 197 199 197 200 198 201 198 202 198 200 199 199 199 201 199 200 200 198 200 199 200 203 201 202 201 204 201 203 202 200 202 202 202 205 203 203 203 204 203 206 204 204 204 207 204 206 205 205 205 204 205 208 206 207 206 209 206 208 207 206 207 207 207 210 208 209 208 211 208 210 209 208 209 209 209 212 210 211 210 213 210 212 211 210 211 211 211 214 212 213 212 215 212 214 213 212 213 213 213 216 214 215 214 217 214 216 215 214 215 215 215 218 216 217 216 219 216 218 217 216 217 217 217 220 218 219 218 221 218 220 219 218 219 219 219 222 220 221 220 223 220 222 221 220 221 221 221 224 222 223 222 225 222 224 223 222 223 223 223 226 224 224 224 225 224 226 225 227 225 228 225 226 226 225 226 227 226 229 227 226 227 228 227 230 228 229 228 228 228 230 229 228 229 231 229 232 230 230 230 231 230 232 231 231 231 233 231 234 232 232 232 233 232 234 233 233 233 235 233 236 234 234 234 235 234 236 235 235 235 237 235 238 236 236 236 237 236 238 237 237 237 239 237 240 238 239 238 241 238 240 239 238 239 239 239 242 240 240 240 241 240 242 241 241 241 243 241 244 242 243 242 245 242 244 243 242 243 243 243 246 244 245 244 247 244 246 245 244 245 245 245 248 246 247 246 249 246 248 247 246 247 247 247 250 248 251 248 2 248 250 249 249 249 251 249 250 250 248 250 249 250 1 251 250 251 2 251 97 252 98 252 94 252 94 253 98 253 93 253 98 254 90 254 93 254 100 255 102 255 98 255 89 256 85 256 86 256 106 257 108 257 105 257 89 258 80 258 85 258 85 259 80 259 82 259 108 260 111 260 105 260 98 261 77 261 90 261 89 262 77 262 80 262 90 263 77 263 89 263 80 264 77 264 78 264 111 265 114 265 105 265 112 266 114 266 111 266 98 267 74 267 77 267 102 268 72 268 98 268 98 269 72 269 74 269 105 270 72 270 102 270 72 271 68 271 70 271 68 272 64 272 66 272 124 273 126 273 123 273 123 274 126 274 120 274 120 275 126 275 118 275 118 276 126 276 116 276 64 277 58 277 62 277 62 278 58 278 60 278 131 279 132 279 128 279 128 280 132 280 126 280 116 281 132 281 114 281 114 282 132 282 105 282 105 283 132 283 72 283 72 284 132 284 68 284 126 285 132 285 116 285 58 286 54 286 56 286 134 287 136 287 132 287 58 288 52 288 54 288 136 289 138 289 132 289 64 290 51 290 58 290 58 291 51 291 52 291 140 292 143 292 138 292 51 293 46 293 48 293 64 294 46 294 51 294 68 295 46 295 64 295 138 296 146 296 132 296 143 297 146 297 138 297 144 298 146 298 143 298 46 299 42 299 44 299 146 300 149 300 132 300 42 301 38 301 40 301 46 302 38 302 42 302 46 303 36 303 38 303 154 304 156 304 153 304 153 305 156 305 150 305 156 306 158 306 150 306 160 307 163 307 158 307 158 308 163 308 150 308 33 309 26 309 30 309 30 310 26 310 28 310 36 311 24 311 34 311 34 312 24 312 33 312 46 313 24 313 36 313 33 314 24 314 26 314 46 315 22 315 24 315 166 316 168 316 164 316 132 317 18 317 68 317 22 318 18 318 21 318 163 319 18 319 150 319 68 320 18 320 46 320 149 321 18 321 132 321 164 322 18 322 163 322 150 323 18 323 149 323 168 324 18 324 164 324 46 325 18 325 22 325 170 326 172 326 168 326 17 327 12 327 15 327 176 328 178 328 174 328 174 329 178 329 172 329 18 330 11 330 17 330 17 331 11 331 12 331 178 332 180 332 172 332 11 333 4 333 9 333 9 334 4 334 6 334 186 335 188 335 184 335 11 336 1 336 4 336 4 337 1 337 0 337 172 338 1 338 168 338 168 339 1 339 18 339 18 340 1 340 11 340 180 341 1 341 172 341 180 342 250 342 1 342 182 343 250 343 180 343 192 344 194 344 190 344 190 345 194 345 188 345 250 346 246 346 248 346 182 347 246 347 250 347 196 348 198 348 194 348 246 349 242 349 244 349 188 350 200 350 184 350 194 351 200 351 188 351 198 352 200 352 194 352 246 353 240 353 242 353 240 354 236 354 238 354 246 355 236 355 240 355 205 356 206 356 203 356 203 357 206 357 200 357 200 358 208 358 184 358 206 359 208 359 200 359 210 360 212 360 208 360 236 361 229 361 234 361 234 362 229 362 232 362 232 363 229 363 230 363 184 364 214 364 182 364 208 365 214 365 184 365 212 366 214 366 208 366 236 367 226 367 229 367 216 368 218 368 214 368 226 369 222 369 224 369 236 370 222 370 226 370 182 371 220 371 246 371 246 372 220 372 236 372 214 373 220 373 182 373 218 374 220 374 214 374 236 375 220 375 222 375 99 376 96 376 95 376 99 377 95 377 92 377 91 378 99 378 92 378 103 379 101 379 99 379 84 380 88 380 87 380 109 381 107 381 104 381 81 382 88 382 84 382 81 383 84 383 83 383 110 384 109 384 104 384 76 385 99 385 91 385 76 386 88 386 81 386 76 387 91 387 88 387 76 388 81 388 79 388 115 389 110 389 104 389 115 390 113 390 110 390 75 391 99 391 76 391 73 392 103 392 99 392 73 393 99 393 75 393 73 394 104 394 103 394 69 395 73 395 71 395 65 396 69 396 67 396 127 397 125 397 122 397 127 398 122 398 121 398 127 399 121 399 119 399 127 400 119 400 117 400 59 401 65 401 63 401 59 402 63 402 61 402 133 403 130 403 129 403 133 404 129 404 127 404 133 405 117 405 115 405 133 406 115 406 104 406 133 407 104 407 73 407 133 408 73 408 69 408 133 409 127 409 117 409 55 410 59 410 57 410 137 411 135 411 133 411 53 412 59 412 55 412 139 413 137 413 133 413 50 414 65 414 59 414 50 415 59 415 53 415 142 416 141 416 139 416 47 417 50 417 49 417 47 418 65 418 50 418 47 419 69 419 65 419 147 420 139 420 133 420 147 421 142 421 139 421 147 422 145 422 142 422 43 423 47 423 45 423 148 424 147 424 133 424 39 425 43 425 41 425 39 426 47 426 43 426 37 427 47 427 39 427 157 428 155 428 152 428 157 429 152 429 151 429 159 430 157 430 151 430 162 431 161 431 159 431 162 432 159 432 151 432 27 433 32 433 31 433 27 434 31 434 29 434 25 435 37 435 35 435 25 436 35 436 32 436 25 437 47 437 37 437 25 438 32 438 27 438 23 439 47 439 25 439 169 440 167 440 165 440 19 441 133 441 69 441 19 442 23 442 20 442 19 443 162 443 151 443 19 444 69 444 47 444 19 445 148 445 133 445 19 446 165 446 162 446 19 447 151 447 148 447 19 448 169 448 165 448 19 449 47 449 23 449 173 450 171 450 169 450 13 451 16 451 14 451 179 452 177 452 175 452 179 453 175 453 173 453 10 454 19 454 16 454 10 455 16 455 13 455 181 456 179 456 173 456 5 457 10 457 8 457 5 458 8 458 7 458 189 459 187 459 185 459 2 460 10 460 5 460 2 461 5 461 3 461 2 462 173 462 169 462 2 463 169 463 19 463 2 464 19 464 10 464 2 465 181 465 173 465 251 466 181 466 2 466 251 467 183 467 181 467 195 468 193 468 191 468 195 469 191 469 189 469 247 470 251 470 249 470 247 471 183 471 251 471 199 472 197 472 195 472 243 473 247 473 245 473 201 474 189 474 185 474 201 475 195 475 189 475 201 476 199 476 195 476 241 477 247 477 243 477 237 478 241 478 239 478 237 479 247 479 241 479 207 480 204 480 202 480 207 481 202 481 201 481 209 482 201 482 185 482 209 483 207 483 201 483 213 484 211 484 209 484 228 485 237 485 235 485 228 486 235 486 233 486 228 487 233 487 231 487 215 488 185 488 183 488 215 489 209 489 185 489 215 490 213 490 209 490 227 491 237 491 228 491 219 492 217 492 215 492 223 493 227 493 225 493 223 494 237 494 227 494 221 495 183 495 247 495 221 496 247 496 237 496 221 497 215 497 183 497 221 498 219 498 215 498 221 499 237 499 223 499</p>
        </triangles>
      </mesh>
    </geometry>
  </library_geometries>
  <library_materials>
    <material id="mat_Part__Feature" name="Part__Feature">
      <instance_effect url="#effect_Part__Feature"/>
    </material>
  </library_materials>
  <library_visual_scenes>
    <visual_scene id="myscene">
      <node id="node0" name="node0">
        <instance_geometry url="#geometry0">
          <bind_material>
            <technique_common>
              <instance_material symbol="ref_Part__Feature" target="#mat_Part__Feature"/>
            </technique_common>
          </bind_material>
        </instance_geometry>
      </node>
    </visual_scene>
  </library_visual_scenes>
  <scene>
    <instance_visual_scene url="#myscene"/>
  </scene>
</COLLADA>
