<COLLADA xmlns="http://www.collada.org/2005/11/COLLADASchema" version="1.4.1">
  <asset>
    <contributor/>
    <created>2025-01-15T00:50:23.949897</created>
    <modified>2025-01-15T00:50:23.949900</modified>
    <unit name="meter" meter="1.0"/>
    <up_axis>Z_UP</up_axis>
  </asset>
  <library_effects>
    <effect id="effect_Part__Feature" name="effect_Part__Feature">
      <profile_COMMON>
        <technique sid="common">
          <phong>
            <emission>
              <color>0.0 0.0 0.0 1.0</color>
            </emission>
            <ambient>
              <color>0.0 0.0 0.0 1.0</color>
            </ambient>
            <diffuse>
              <color>0.800000011920929 0.800000011920929 0.800000011920929 1.0</color>
            </diffuse>
            <specular>
              <color>1 1 1 1.0</color>
            </specular>
            <shininess>
              <float>0.0</float>
            </shininess>
            <reflective>
              <color>0.0 0.0 0.0 1.0</color>
            </reflective>
            <reflectivity>
              <float>0.0</float>
            </reflectivity>
            <transparent>
              <color>0.0 0.0 0.0 1.0</color>
            </transparent>
            <transparency>
              <float>1.0</float>
            </transparency>
          </phong>
        </technique>
        <extra>
          <technique profile="GOOGLEEARTH">
            <double_sided>0</double_sided>
          </technique>
        </extra>
      </profile_COMMON>
    </effect>
  </library_effects>
  <library_geometries>
    <geometry id="geometry0" name="Part__Feature">
      <mesh>
        <source id="cubeverts-array0">
          <float_array count="72" id="cubeverts-array0-array">-0.5 -0.5 -0.02 -0.5 -0.5 0 -0.5 0.5 -0.02 -0.5 0.5 0 0.5 -0.5 -0.02 0.5 -0.5 0 -0.4 -0.38 0 -0.4 -0.46 0 -0.4 0.38 0 0.4 -0.46 0 0.4 -0.38 0 -0.4 0.46 0 0.4 0.38 0 0.5 0.5 0 0.4 0.46 0 0.5 0.5 -0.02 -0.4 -0.46 0.04 -0.4 -0.38 0.04 0.4 -0.38 0.04 0.4 -0.46 0.04 -0.4 0.38 0.04 -0.4 0.46 0.04 0.4 0.38 0.04 0.4 0.46 0.04</float_array>
          <technique_common>
            <accessor count="24" source="#cubeverts-array0-array" stride="3">
              <param type="float" name="X"/>
              <param type="float" name="Y"/>
              <param type="float" name="Z"/>
            </accessor>
          </technique_common>
        </source>
        <source id="cubenormals-array0">
          <float_array count="132" id="cubenormals-array0-array">-1 0 0 -1 0 0 0 -1 0 0 -1 0 0 0 1 0 0 1 0 0 1 0 0 1 0 0 1 0 0 1 0 0 1 0 0 1 0 0 1 0 0 1 0 0 1 0 0 1 0 0 1 0 0 1 0 1 0 0 1 0 0 0 -1 0 0 -1 1 0 0 1 -0 0 -1 0 0 -1 0 0 0 1 0 0 1 0 0 -1 0 0 -1 0 1 0 0 1 -0 0 -1 0 0 -1 0 0 0 -1 0 0 -1 0 1 0 0 1 -0 0 0 1 0 0 1 0 0 0 1 0 0 1 0 0 1 0 0 1</float_array>
          <technique_common>
            <accessor count="44" source="#cubenormals-array0-array" stride="3">
              <param type="float" name="X"/>
              <param type="float" name="Y"/>
              <param type="float" name="Z"/>
            </accessor>
          </technique_common>
        </source>
        <vertices id="cubeverts-array0-vertices">
          <input semantic="POSITION" source="#cubeverts-array0"/>
        </vertices>
        <triangles count="44" material="ref_Part__Feature">
          <input offset="0" semantic="VERTEX" source="#cubeverts-array0-vertices"/>
          <input offset="1" semantic="NORMAL" source="#cubenormals-array0"/>
          <p>0 0 1 0 2 0 2 1 1 1 3 1 4 2 5 2 0 2 0 3 5 3 1 3 6 4 1 4 7 4 3 5 1 5 6 5 3 6 6 6 8 6 5 7 9 7 7 7 5 8 7 8 1 8 10 9 9 9 5 9 11 10 3 10 8 10 12 11 6 11 10 11 12 12 8 12 6 12 13 13 14 13 12 13 13 14 12 14 10 14 13 15 10 15 5 15 13 16 3 16 11 16 13 17 11 17 14 17 13 18 15 18 2 18 13 19 2 19 3 19 2 20 15 20 0 20 0 21 15 21 4 21 5 22 4 22 15 22 5 23 15 23 13 23 7 24 16 24 6 24 6 25 16 25 17 25 18 26 10 26 6 26 18 27 6 27 17 27 9 28 19 28 7 28 7 29 19 29 16 29 19 30 9 30 10 30 19 31 10 31 18 31 8 32 20 32 11 32 11 33 20 33 21 33 12 34 22 34 8 34 8 35 22 35 20 35 22 36 12 36 14 36 22 37 14 37 23 37 23 38 14 38 11 38 23 39 11 39 21 39 18 40 17 40 16 40 18 41 16 41 19 41 23 42 21 42 20 42 23 43 20 43 22 43</p>
        </triangles>
      </mesh>
    </geometry>
  </library_geometries>
  <library_materials>
    <material id="mat_Part__Feature" name="Part__Feature">
      <instance_effect url="#effect_Part__Feature"/>
    </material>
  </library_materials>
  <library_visual_scenes>
    <visual_scene id="myscene">
      <node id="node0" name="node0">
        <instance_geometry url="#geometry0">
          <bind_material>
            <technique_common>
              <instance_material symbol="ref_Part__Feature" target="#mat_Part__Feature"/>
            </technique_common>
          </bind_material>
        </instance_geometry>
      </node>
    </visual_scene>
  </library_visual_scenes>
  <scene>
    <instance_visual_scene url="#myscene"/>
  </scene>
</COLLADA>
